<?xml version="1.0" standalone="no"?>
<!DOCTYPE svg PUBLIC "-//W3C//DTD SVG 20010904//EN"
 "http://www.w3.org/TR/2001/REC-SVG-20010904/DTD/svg10.dtd">
<svg version="1.0" xmlns="http://www.w3.org/2000/svg"
 width="300.000000pt" height="300.000000pt" viewBox="0 0 300.000000 300.000000"
 preserveAspectRatio="xMidYMid meet">
<metadata>
Created by potrace 1.10, written by Peter Selinger 2001-2011
</metadata>
<g transform="translate(0.000000,300.000000) scale(0.100000,-0.100000)"
fill="#000000" stroke="none">
<path d="M0 1500 l0 -1500 1500 0 1500 0 0 1500 0 1500 -1500 0 -1500 0 0
-1500z m938 1136 c15 -8 38 -26 52 -41 41 -45 111 -85 148 -85 47 0 113 20
137 41 24 21 175 59 261 66 92 8 193 -22 347 -102 26 -14 33 -13 70 3 23 11
67 40 97 66 30 25 72 52 93 58 35 10 41 9 79 -18 23 -16 50 -41 60 -55 27 -36
34 -100 15 -135 -8 -16 -22 -56 -32 -89 -9 -33 -25 -74 -35 -92 -10 -17 -16
-41 -13 -52 3 -13 1 -21 -7 -21 -18 0 -9 -16 55 -105 62 -87 125 -204 125
-233 0 -10 -5 -23 -12 -30 -9 -9 -8 -18 2 -38 13 -23 13 -27 -4 -39 -11 -9
-15 -19 -10 -26 4 -8 11 -56 16 -109 4 -52 9 -106 10 -120 2 -18 -4 -28 -20
-35 -19 -8 -22 -17 -22 -64 0 -31 -6 -61 -13 -70 -8 -9 -21 -45 -31 -80 -15
-56 -15 -66 -3 -79 13 -12 15 -9 21 21 14 76 72 117 166 117 100 0 128 -27
109 -106 -7 -25 -19 -50 -29 -56 -15 -10 -15 -13 1 -45 9 -18 20 -61 24 -94 6
-54 5 -63 -16 -85 -20 -22 -31 -24 -104 -24 -55 0 -87 5 -102 15 -18 13 -22
13 -33 0 -16 -19 -50 -19 -77 0 -18 13 -22 13 -33 0 -14 -17 -56 -20 -66 -4
-9 15 -25 -2 -44 -49 -35 -83 -108 -193 -139 -208 -15 -8 -48 -57 -90 -136
-51 -94 -71 -123 -86 -123 -27 0 -31 42 -10 106 10 28 15 52 13 55 -3 2 -22
-22 -44 -53 -66 -97 -84 -115 -100 -102 -9 7 -12 20 -8 32 5 17 3 19 -17 14
-13 -3 -29 -1 -36 5 -21 17 -43 1 -43 -30 0 -36 -22 -59 -38 -39 -6 7 -20 33
-30 57 -19 44 -20 44 -27 19 -3 -15 -19 -39 -35 -54 l-28 -27 -31 44 c-45 63
-81 104 -81 93 0 -5 7 -31 15 -58 15 -51 12 -72 -11 -81 -15 -6 -59 56 -108
151 -14 29 -32 56 -41 60 -19 11 -95 113 -95 129 0 7 -20 37 -45 68 -26 31
-51 69 -56 86 -11 30 -12 30 -87 31 -43 1 -80 1 -84 0 -5 0 -13 8 -20 19 -12
18 -13 18 -31 2 -24 -22 -192 -30 -227 -12 -20 11 -21 17 -15 53 4 23 11 61
15 85 8 51 -3 133 -26 185 -16 35 -16 38 1 57 15 17 31 20 96 20 117 0 170
-28 189 -101 10 -35 12 -36 35 -26 28 13 33 27 10 27 -19 0 -33 27 -41 79 -4
22 -10 41 -14 41 -15 0 -30 53 -30 106 0 47 -3 54 -17 52 -16 -3 -19 9 -26 87
-6 62 -4 107 4 145 7 30 12 61 10 67 -1 7 3 22 9 32 7 13 7 22 0 26 -35 22 29
179 108 267 54 59 61 98 25 127 -38 29 -73 132 -73 213 0 70 28 158 50 158 5
0 16 7 24 15 13 14 65 45 74 45 2 0 15 -6 30 -14z"/>
<path d="M849 2580 c-21 -22 -36 -32 -33 -23 3 10 -3 5 -13 -12 -25 -42 -24
-175 1 -230 11 -22 18 -44 17 -48 -1 -4 14 -14 34 -22 41 -18 45 -18 45 -5 0
6 -8 10 -18 10 -45 0 -82 81 -82 177 0 71 8 90 58 146 37 39 65 35 115 -17 52
-53 119 -89 167 -89 20 0 58 10 84 22 53 23 70 26 61 11 -9 -15 19 -12 41 5
18 13 16 14 -21 13 -22 0 -62 -9 -88 -19 -26 -11 -60 -19 -75 -19 -40 0 -129
47 -155 82 -22 30 -65 58 -88 58 -7 0 -29 -18 -50 -40z"/>
<path d="M2125 2608 c-11 -6 -44 -31 -73 -56 -32 -27 -76 -52 -110 -63 -31
-10 -49 -18 -38 -18 42 -2 97 24 160 75 51 41 75 54 100 54 33 0 34 -1 45 -61
19 -93 -4 -137 -109 -212 -20 -14 -21 -16 -3 -7 30 14 38 13 23 -5 -7 -8 -9
-15 -4 -14 5 0 26 23 48 51 30 39 40 47 48 37 6 -10 7 -7 3 10 -5 16 -4 21 4
17 13 -9 14 77 2 143 -12 59 -46 77 -96 49z"/>
<path d="M1388 2567 c-59 -12 -110 -26 -115 -30 -4 -5 3 -6 17 -3 99 23 281
47 315 41 87 -13 197 -47 183 -57 -10 -8 -11 -9 0 -6 30 8 11 24 -54 47 -97
33 -209 36 -346 8z"/>
<path d="M2233 2576 c4 -10 7 -27 7 -39 0 -17 2 -19 9 -8 7 11 12 3 21 -30 16
-63 18 -67 19 -34 1 34 -30 108 -50 120 -9 6 -11 3 -6 -9z"/>
<path d="M871 2549 c-56 -61 65 -221 166 -218 24 0 22 2 -15 14 -83 26 -152
103 -152 170 0 34 16 24 23 -14 15 -74 143 -161 210 -143 42 12 99 51 134 92
l27 32 -43 -22 c-32 -16 -57 -21 -92 -18 -46 3 -48 2 -43 -19 14 -53 -68 -35
-114 24 -14 19 -28 54 -31 77 -5 32 -11 42 -28 44 -12 2 -30 -6 -42 -19z"/>
<path d="M2133 2563 c-7 -2 -13 -14 -13 -24 0 -51 -90 -149 -137 -149 -30 0
-40 25 -20 48 14 16 12 17 -41 16 -102 -3 -107 -3 -96 -14 6 -6 46 -28 89 -50
62 -31 82 -37 93 -28 8 7 35 19 60 28 31 10 58 29 85 62 35 42 39 51 33 82 -7
35 -20 43 -53 29z"/>
<path d="M2076 2509 c-15 -22 -48 -53 -73 -70 -26 -16 -41 -29 -34 -29 35 0
116 74 134 123 10 27 2 20 -27 -24z"/>
<path d="M950 2532 c0 -16 57 -88 83 -105 46 -30 52 -18 8 14 -23 16 -51 46
-63 65 -20 34 -28 41 -28 26z"/>
<path d="M1400 2528 c-52 -14 -59 -28 -9 -16 48 10 253 6 282 -6 9 -5 17 -4
17 1 0 27 -213 43 -290 21z"/>
<path d="M824 2484 c-9 -51 1 -101 31 -142 l27 -37 -36 37 c-20 21 -36 33 -36
27 0 -21 57 -67 95 -78 48 -13 56 -7 18 12 -64 34 -98 105 -87 179 8 48 -3 50
-12 2z"/>
<path d="M1715 2510 c3 -5 13 -10 21 -10 8 0 12 5 9 10 -3 6 -13 10 -21 10 -8
0 -12 -4 -9 -10z"/>
<path d="M1786 2501 c-11 -4 -15 -10 -10 -13 15 -9 104 -6 110 3 3 5 -5 9 -18
9 -13 0 -32 2 -43 5 -11 2 -29 1 -39 -4z"/>
<path d="M1337 2474 c-52 -13 -79 -33 -104 -75 -9 -15 -22 -25 -28 -22 -22 8
-187 -145 -204 -190 -7 -18 -5 -23 9 -24 12 -1 21 10 29 37 8 28 32 57 85 104
40 36 76 66 80 66 4 0 4 -10 1 -21 -6 -17 2 -13 30 16 55 54 137 89 205 86 63
-2 78 -2 158 0 67 2 145 -26 204 -72 21 -17 38 -28 38 -24 0 3 31 -19 70 -50
39 -32 69 -64 68 -73 -3 -34 2 -53 12 -47 31 19 -7 82 -84 138 -13 9 -15 16
-8 21 6 4 43 -16 83 -44 39 -29 69 -46 67 -38 -5 16 -170 129 -177 122 -3 -3
1 -9 9 -14 8 -6 11 -10 6 -10 -6 0 -23 12 -38 27 -26 25 -42 21 -16 -5 6 -6 9
-14 6 -18 -4 -3 -16 12 -27 34 -24 47 -50 66 -116 80 -67 15 -298 12 -358 -4z
m558 -124 c-3 -5 -12 -10 -18 -10 -7 0 -6 4 3 10 19 12 23 12 15 0z"/>
<path d="M2172 2434 c-33 -47 -95 -83 -142 -84 -21 -1 -23 -2 -8 -11 36 -20
139 47 174 114 21 40 12 33 -24 -19z"/>
<path d="M2250 2450 c0 -73 -80 -167 -132 -156 -21 4 -28 2 -28 -9 0 -30 68
-10 113 33 15 14 27 22 27 18 0 -18 -42 -86 -64 -103 -22 -17 -22 -20 -8 -31
16 -10 16 -11 0 -11 -23 -1 -23 -15 -1 -32 15 -12 16 -12 10 4 -5 14 -2 20 13
24 24 6 27 23 4 23 -12 0 -10 7 10 30 14 17 33 54 41 83 18 58 31 157 21 157
-3 0 -6 -14 -6 -30z"/>
<path d="M1353 2406 c-38 -33 -26 -40 23 -14 21 11 50 24 64 29 21 6 18 7 -17
8 -31 1 -49 -5 -70 -23z"/>
<path d="M1603 2416 c20 -8 44 -19 52 -26 8 -7 15 -9 15 -5 0 4 7 1 16 -6 14
-12 16 -11 13 6 -5 26 -45 45 -94 44 l-40 0 38 -13z"/>
<path d="M1510 2412 c-38 -3 -110 -32 -110 -44 0 -5 19 -8 43 -8 24 0 48 -5
55 -12 9 -9 17 -9 34 0 13 6 41 13 63 14 l40 3 -45 25 c-29 16 -57 24 -80 22z"/>
<path d="M870 2392 c0 -5 23 -30 52 -55 45 -39 50 -47 39 -61 -7 -9 -20 -16
-27 -16 -8 0 -14 -7 -14 -15 0 -21 5 -19 50 21 l40 36 -50 25 c-28 14 -59 36
-70 50 -11 14 -20 21 -20 15z"/>
<path d="M1284 2368 c-10 -6 -29 -20 -41 -31 -12 -11 -32 -20 -45 -21 -21 -1
-24 -8 -34 -83 -6 -46 -8 -86 -5 -91 8 -11 62 -44 65 -40 2 2 11 26 21 53 28
75 61 115 96 115 29 0 29 1 14 24 -8 13 -13 29 -10 37 7 22 -37 49 -61 37z"/>
<path d="M1705 2362 c-11 -9 -19 -25 -17 -34 2 -9 -2 -26 -8 -37 -9 -19 -8
-21 14 -21 13 0 26 -7 30 -15 3 -8 15 -14 27 -12 24 2 32 -10 48 -68 18 -64
23 -69 59 -51 28 15 29 18 21 53 -23 100 -45 144 -90 174 -51 33 -57 34 -84
11z"/>
<path d="M1085 2328 c-11 -6 -43 -32 -71 -58 -27 -26 -64 -55 -81 -63 -27 -15
-32 -15 -54 1 -23 15 -23 15 -10 -2 13 -15 13 -19 0 -27 -9 -7 -1 -8 25 -3
l39 7 -65 -64 c-71 -70 -105 -123 -144 -220 l-24 -64 23 25 c83 88 217 240
217 247 -1 4 -10 -3 -21 -17 -36 -42 -179 -190 -179 -184 0 4 15 34 32 68 20
37 64 92 111 139 42 42 72 77 66 77 -7 0 6 13 27 28 21 16 46 37 54 47 8 10
33 31 54 47 39 28 39 38 1 16z"/>
<path d="M1370 2324 c0 -6 6 -16 13 -22 13 -11 119 -53 123 -49 1 1 -1 18 -5
37 -7 35 -7 35 -69 40 -42 3 -62 1 -62 -6z"/>
<path d="M1594 2333 c-51 -4 -52 -5 -59 -40 -3 -19 -4 -37 -2 -39 3 -3 31 6
63 19 44 17 60 29 62 45 2 12 0 21 -5 20 -4 -1 -31 -3 -59 -5z"/>
<path d="M1881 2253 c15 -32 31 -77 34 -100 6 -39 5 -41 -23 -48 -31 -6 -63
-37 -102 -97 -14 -20 -26 -36 -27 -34 -2 2 6 25 18 52 21 47 21 50 6 95 -10
26 -17 64 -17 85 0 56 -19 29 -21 -31 -1 -28 1 -71 6 -97 9 -58 2 -88 -31
-127 -42 -50 -13 -36 72 35 76 63 81 65 128 62 l48 -3 -5 56 c-3 31 -13 71
-22 90 -20 39 -77 118 -86 119 -3 0 7 -26 22 -57z m-121 -287 c0 -2 -8 -10
-17 -17 -16 -13 -17 -12 -4 4 13 16 21 21 21 13z"/>
<path d="M1138 2268 c-37 -57 -59 -112 -64 -165 l-6 -58 54 0 c61 0 88 -17
156 -99 44 -53 57 -58 34 -13 -14 26 -17 57 -15 161 3 128 -1 148 -17 84 -5
-18 -13 -47 -18 -63 -7 -23 -5 -46 9 -90 10 -33 17 -61 15 -63 -2 -1 -15 17
-29 40 -34 59 -73 96 -105 100 -25 3 -26 5 -23 63 1 32 9 72 18 88 18 35 11
46 -9 15z"/>
<path d="M2066 2252 c-3 -6 6 -18 20 -27 22 -14 28 -15 35 -4 6 10 3 15 -9 18
-9 2 -22 7 -29 13 -7 5 -13 5 -17 0z"/>
<path d="M1330 2230 c39 -32 91 -57 138 -64 37 -6 42 -4 42 13 0 20 -5 22
-125 52 -22 6 -49 12 -60 15 -17 5 -16 2 5 -16z"/>
<path d="M1655 2235 c-22 -8 -59 -19 -83 -25 -32 -8 -42 -16 -40 -28 3 -13 12
-16 48 -13 25 1 54 8 65 13 41 21 83 70 58 67 -5 0 -26 -7 -48 -14z"/>
<path d="M2011 2215 c0 -11 4 -27 9 -35 9 -13 10 -13 9 0 0 8 -4 24 -9 35 -9
20 -9 20 -9 0z"/>
<path d="M2050 2213 c0 -5 21 -25 48 -43 90 -63 157 -141 207 -240 13 -28 0
-17 -68 51 -46 47 -99 105 -116 129 -17 24 -31 39 -31 33 0 -21 66 -101 156
-190 94 -94 108 -113 48 -68 -46 35 -50 31 -19 -21 33 -56 26 -70 -9 -17 -14
20 -26 31 -26 23 0 -17 104 -120 122 -120 6 0 0 12 -13 28 -25 27 -59 77 -59
86 0 3 16 -4 35 -16 20 -11 38 -18 41 -15 17 17 -167 308 -197 312 -9 2 -39
19 -67 40 -29 20 -52 33 -52 28z"/>
<path d="M1324 2185 c3 -9 6 -28 6 -41 0 -22 2 -23 21 -12 17 11 22 10 35 -6
19 -27 18 -55 -5 -93 -27 -44 -46 -112 -35 -123 5 -4 22 -6 37 -3 21 4 26 10
22 24 -3 10 3 36 15 58 11 22 20 49 20 60 0 22 -31 94 -42 99 -4 2 -24 15 -44
28 -27 19 -35 21 -30 9z"/>
<path d="M1697 2182 c-18 -20 -18 -21 0 -48 l18 -28 3 27 c2 15 2 37 0 48 l-3
21 -18 -20z"/>
<path d="M2035 2160 c-4 -6 -15 -8 -26 -5 -17 6 -19 1 -19 -49 0 -60 1 -62 31
-45 15 8 24 7 36 -3 14 -11 15 -10 7 12 -5 14 -8 42 -7 63 1 36 -9 48 -22 27z"/>
<path d="M1035 2139 c-4 -6 -13 -8 -21 -5 -16 6 -19 -10 -4 -19 6 -3 10 -17
10 -31 0 -30 16 -64 31 -64 6 0 5 8 -2 21 -7 13 -9 40 -5 65 6 44 3 53 -9 33z"/>
<path d="M1430 2144 c0 -3 9 -17 20 -31 27 -34 25 -68 -5 -125 -36 -68 -30
-72 10 -8 37 57 48 128 23 147 -17 13 -48 24 -48 17z"/>
<path d="M1516 2143 c-3 -3 -3 -25 1 -49 5 -36 0 -52 -30 -107 -33 -61 -34
-65 -16 -70 10 -3 19 -12 19 -21 0 -16 17 -20 44 -10 8 3 12 12 9 20 -9 25 26
27 85 6 36 -14 59 -18 63 -11 6 10 -2 41 -41 159 -18 53 -19 54 -26 26 -4 -17
-2 -50 6 -78 16 -64 6 -73 -20 -17 -25 55 -25 75 -1 122 21 40 17 45 -17 21
-16 -11 -22 -25 -22 -52 0 -41 27 -108 54 -135 13 -13 14 -17 3 -17 -37 0 -92
105 -85 163 3 32 -13 63 -26 50z"/>
<path d="M917 2058 c-42 -53 -63 -86 -57 -92 6 -6 10 -61 10 -123 0 -62 4
-113 9 -113 11 0 19 41 30 164 8 79 16 112 45 172 19 41 34 74 32 74 -1 0 -32
-37 -69 -82z"/>
<path d="M1671 2114 c0 -17 6 -48 14 -67 8 -20 15 -50 15 -67 0 -18 4 -29 10
-25 17 10 11 88 -9 121 -10 17 -21 40 -24 50 -3 12 -5 7 -6 -12z"/>
<path d="M2097 2065 c32 -69 37 -89 47 -212 8 -100 15 -138 25 -141 11 -4 13
16 6 117 -5 85 -3 126 4 135 9 11 -1 30 -44 87 -30 41 -55 77 -55 81 0 5 -4 8
-10 8 -5 0 7 -34 27 -75z"/>
<path d="M1351 2093 c-30 -63 -40 -104 -32 -125 7 -19 9 -16 14 19 4 22 16 52
27 66 14 18 18 31 12 47 -8 21 -8 21 -21 -7z"/>
<path d="M990 2095 c-10 -64 15 -107 74 -130 33 -13 45 -24 55 -51 19 -51 50
-68 115 -60 43 5 55 3 60 -9 3 -8 1 -16 -4 -16 -6 -1 -14 -3 -20 -4 -5 -1 -24
-3 -40 -4 -21 -1 -45 -15 -76 -43 -44 -40 -47 -42 -72 -27 -43 24 -65 73 -67
151 -2 38 -5 71 -8 75 -11 11 -39 -110 -33 -145 7 -46 50 -110 82 -122 32 -12
53 -2 116 56 26 24 55 44 65 44 16 0 16 -2 3 -11 -12 -9 -11 -10 5 -4 51 17
73 16 112 -4 l40 -22 58 22 c61 23 68 22 163 -12 60 -21 72 -31 52 -44 -5 -3
-10 -11 -10 -16 0 -6 5 -7 11 -3 8 4 9 -1 4 -17 -7 -21 -4 -20 19 8 15 18 42
37 59 42 30 9 31 9 6 10 -15 1 -38 -8 -53 -20 -29 -23 -36 -11 -8 14 10 10 35
17 56 17 30 0 45 -7 74 -36 l35 -35 -36 -30 c-21 -17 -37 -35 -37 -42 0 -6 13
1 28 16 33 32 57 34 71 8 8 -14 4 -28 -18 -63 -25 -39 -45 -54 -111 -82 -8 -3
3 -4 24 -1 21 2 49 13 61 25 23 21 50 26 60 10 3 -5 -12 -29 -33 -52 -36 -38
-41 -41 -58 -28 -10 8 -15 10 -11 4 9 -16 -9 -28 -70 -50 -29 -10 -53 -22 -53
-26 0 -4 33 4 73 18 47 16 84 23 107 20 33 -5 34 -4 15 10 -17 13 -18 16 -5
24 8 5 25 10 38 10 34 0 25 -31 -15 -51 -40 -20 -63 -38 -63 -50 0 -5 13 -3
30 6 27 14 30 14 39 -4 8 -15 7 -20 -7 -26 -9 -3 -18 -6 -20 -5 -2 0 -11 -8
-20 -20 -15 -18 -32 -21 -132 -25 -97 -5 -120 -3 -150 12 -30 16 -35 23 -38
60 -3 34 -7 42 -28 47 -17 5 -24 13 -24 30 0 31 -19 50 -75 75 -38 17 -45 25
-55 63 -29 112 -47 138 -98 138 -13 0 -20 4 -17 10 10 17 55 11 85 -10 41 -29
48 -7 10 31 -26 26 -37 30 -69 27 -22 -2 -37 1 -34 6 3 5 0 7 -6 5 -7 -3 -11
-7 -9 -9 14 -22 -202 -242 -255 -259 -38 -13 -41 -37 -3 -27 11 3 28 1 36 -4
12 -7 11 -12 -5 -32 -13 -15 -8 -13 15 7 19 16 29 23 23 15 -21 -23 -15 -35 7
-15 17 15 23 16 50 5 23 -9 28 -15 18 -21 -7 -5 -20 -8 -28 -8 -10 0 -9 3 5
10 15 7 13 8 -10 3 -16 -4 -37 -7 -47 -8 -21 -3 -49 -26 -43 -36 5 -9 -45 -33
-53 -25 -4 3 4 8 16 12 20 5 21 7 8 22 -24 27 -67 132 -82 201 -7 36 -14 110
-14 165 -1 55 -5 118 -9 140 -8 43 -9 32 -30 -275 -5 -69 -12 -134 -16 -145
-7 -20 -6 -20 9 -1 9 11 16 24 16 30 0 6 3 6 9 0 13 -13 24 -74 14 -74 -4 0
-19 -10 -33 -21 l-25 -20 32 16 33 15 75 -77 74 -77 -19 -31 c-27 -45 -53
-194 -30 -180 6 3 10 25 10 48 0 59 18 115 40 127 29 15 33 12 25 -17 -6 -26
-6 -27 13 -10 29 26 39 20 12 -8 -12 -13 -26 -22 -30 -20 -7 4 -20 -17 -20
-31 0 -10 24 3 46 24 25 24 44 29 44 11 0 -5 5 -7 12 -3 7 4 2 -6 -10 -23 -12
-18 -19 -34 -14 -36 4 -3 17 12 29 33 l22 38 -22 7 c-20 6 -20 8 -4 12 16 4
15 7 -8 19 -15 8 -32 11 -39 7 -6 -4 0 7 14 23 14 17 27 28 30 25 12 -14 29
-10 23 6 -4 10 -2 14 4 10 6 -4 13 -3 15 3 1 6 4 -18 5 -52 2 -96 4 -104 30
-104 13 0 23 1 23 2 0 2 -5 15 -11 31 -19 46 -28 93 -18 93 5 0 9 -11 9 -25 0
-14 4 -25 9 -25 5 0 11 -14 15 -31 3 -17 10 -28 15 -24 5 3 14 -3 20 -12 13
-25 25 -9 12 15 -6 12 -11 34 -11 51 0 26 4 31 25 31 28 0 30 -6 15 -45 -16
-41 -4 -73 25 -67 22 4 23 7 18 53 l-6 49 38 0 c31 0 36 -3 30 -17 -22 -59
-17 -115 9 -94 8 7 34 11 58 9 40 -3 43 -5 44 -33 2 -49 6 -53 13 -10 l6 40
79 3 79 3 -6 37 c-3 20 -8 45 -12 55 -7 16 -3 18 26 15 l34 -3 -2 -52 -2 -53
33 0 c33 0 33 0 26 38 -4 20 -11 45 -15 55 -6 14 -2 17 30 17 l37 0 -7 -42
c-4 -24 -12 -51 -17 -61 -5 -10 -7 -21 -5 -24 8 -7 36 40 63 104 26 65 34 38
9 -32 -17 -47 -18 -55 -6 -55 11 0 39 74 47 128 6 37 8 40 19 25 11 -14 10
-27 -7 -73 -12 -30 -25 -60 -30 -67 -7 -9 -2 -11 19 -9 15 1 35 -2 43 -8 12
-8 13 -8 3 4 -7 8 -13 21 -13 30 1 11 5 9 19 -7 25 -30 29 -29 23 3 -4 25 -4
26 19 13 13 -7 29 -19 35 -27 8 -11 16 -12 28 -5 15 8 15 11 3 22 -8 6 -25 14
-37 16 -13 2 -25 7 -29 11 -3 4 3 4 14 0 13 -5 17 -4 10 3 -13 13 -67 2 -58
-12 4 -7 0 -8 -11 -4 -10 4 -22 7 -28 7 -7 0 -7 4 1 13 24 30 23 82 -4 121
-20 30 -23 39 -12 50 10 12 17 11 40 -1 16 -8 31 -12 33 -10 3 2 -9 10 -26 17
-25 10 -28 15 -19 27 10 12 18 8 51 -24 21 -20 38 -32 38 -27 0 6 -9 19 -20
29 -11 10 -17 21 -15 25 3 4 -7 11 -21 14 -15 4 -24 9 -21 12 2 3 33 -6 68
-20 34 -15 64 -26 65 -26 6 0 -20 66 -32 84 -8 11 -23 21 -35 23 -47 7 -74 28
-74 56 1 15 -3 27 -7 27 -4 0 -8 7 -8 15 0 8 -9 19 -21 25 -11 7 -18 14 -16
17 8 7 57 -28 52 -37 -5 -9 33 -26 48 -22 5 1 6 -1 3 -6 -3 -5 8 -23 24 -41
25 -27 36 -32 66 -29 34 3 36 5 59 73 13 39 22 72 20 73 -2 2 -16 -19 -30 -48
-26 -51 -27 -52 -63 -46 -20 3 -49 15 -64 26 -16 12 -34 18 -40 14 -7 -4 -8
-3 -4 4 4 7 -12 23 -41 41 -44 27 -87 71 -92 96 -3 11 -40 34 -56 34 -5 1 -3
-4 5 -9 11 -8 8 -9 -12 -4 -14 3 -36 1 -47 -6 -17 -8 -36 -7 -82 5 -70 17
-114 38 -62 29 37 -7 83 2 83 16 0 6 -10 6 -26 0 -17 -7 -38 -7 -60 -1 -24 7
-32 6 -27 -1 4 -8 0 -9 -11 -5 -10 4 -38 -2 -63 -13 -55 -24 -86 -25 -118 -4
-19 12 -25 25 -25 50 0 24 -5 34 -15 34 -8 0 -24 9 -34 19 -44 44 -87 60 -203
76 -59 8 -72 24 -81 100 -3 20 -5 23 -7 10z m205 -161 c23 -45 26 -46 45 -29
17 16 19 15 29 -4 10 -18 8 -21 -14 -27 -14 -3 -37 -3 -51 0 -18 5 -24 3 -19
-5 10 -15 -28 5 -42 23 -17 21 -26 58 -14 58 6 0 11 -6 11 -14 0 -8 9 -24 21
-37 18 -21 20 -21 14 -4 -17 46 -18 68 -4 63 8 -3 19 -13 24 -24z m120 -180
c13 -8 26 -22 29 -31 4 -9 -6 -4 -25 11 -38 33 -50 32 -89 0 -38 -32 -53 -24
-20 11 27 29 69 33 105 9z m-42 -55 c29 -16 34 -24 56 -96 22 -72 94 -164 154
-194 32 -17 37 -24 37 -55 0 -31 -4 -37 -37 -51 -54 -22 -203 -18 -259 6 -46
21 -59 35 -59 68 l-1 21 38 -19 c42 -21 54 -11 13 11 -43 23 -13 34 59 21 36
-6 73 -14 83 -18 10 -4 14 -2 10 4 -4 6 -31 17 -59 23 -29 7 -57 16 -63 20 -5
5 -13 9 -17 10 -49 8 -98 48 -98 79 0 19 40 12 73 -13 36 -27 107 -45 107 -27
0 6 -14 11 -32 11 -24 0 -41 10 -75 45 -24 25 -41 50 -38 54 2 5 -2 14 -10 21
-8 7 -12 16 -9 21 11 18 59 8 87 -18 26 -24 28 -25 18 -6 -13 26 -49 53 -71
53 -8 0 -26 -11 -40 -24 -14 -13 -40 -38 -57 -54 -18 -17 -33 -36 -33 -43 0
-6 9 0 21 15 25 32 39 33 39 2 0 -17 -7 -26 -25 -30 -28 -7 -45 -1 -45 15 0
17 103 120 140 140 41 21 63 23 93 8z m647 -109 c0 -25 -4 -30 -25 -30 -24 0
-24 0 -7 30 22 38 32 38 32 0z m-757 -15 l18 -25 -29 0 c-26 0 -29 3 -24 25 5
31 12 31 35 0z m-148 -52 c-19 -15 -19 -15 5 -10 86 19 97 19 104 0 3 -10 9
-24 12 -30 3 -7 -1 -13 -8 -13 -8 0 -14 10 -15 21 -3 29 -3 29 -49 17 -22 -6
-53 -8 -69 -4 l-28 7 29 18 c34 21 48 17 19 -6z m930 -3 c9 -28 0 -38 -29 -33
-25 5 -25 6 -8 29 21 29 29 30 37 4z m84 -44 c7 -9 17 -14 21 -11 4 3 10 -2
14 -10 7 -19 7 -19 -40 1 -36 15 -63 39 -64 57 0 11 54 -18 69 -37z m5 28 c24
-23 19 -27 -9 -8 -14 9 -25 18 -25 20 0 10 20 3 34 -12z m-934 -14 c0 -5 -7
-10 -16 -10 -8 0 -12 5 -9 10 3 6 10 10 16 10 5 0 9 -4 9 -10z m95 -43 c27
-20 6 -30 -85 -41 -14 -1 -35 -8 -47 -14 -32 -18 -38 -15 -17 9 13 15 15 22 6
28 -6 4 7 6 31 6 25 -1 41 -6 40 -13 -2 -6 4 -9 12 -5 11 4 13 9 5 18 -8 9 -7
14 2 18 22 9 33 8 53 -6z m-157 -25 c9 -6 4 -16 -16 -35 -24 -23 -31 -25 -40
-14 -9 10 -7 19 9 35 22 24 28 26 47 14z m52 -39 c-14 -9 -37 -27 -51 -40 -23
-21 -27 -22 -33 -8 -3 9 0 18 9 21 8 4 12 11 8 17 -3 6 -1 7 5 3 6 -4 24 0 39
8 38 20 53 20 23 -1z m53 0 c-4 -11 -3 -14 5 -9 8 5 10 2 5 -9 -4 -12 -8 -13
-13 -4 -6 8 -11 6 -19 -10 -6 -11 -23 -24 -36 -27 -14 -3 -23 -10 -20 -14 7
-11 -12 -23 -25 -15 -16 10 18 53 64 80 49 30 47 29 39 8z m436 -99 c51 -11
35 -24 -28 -24 -69 0 -100 8 -79 21 16 10 63 11 107 3z m-403 -92 c-5 -5 -26
59 -25 77 0 9 7 -4 14 -29 8 -24 13 -46 11 -48z m48 38 c5 -17 4 -20 -2 -10
-5 8 -13 26 -16 40 -5 17 -4 20 2 10 5 -8 13 -26 16 -40z m265 14 c3 -2 -1
-10 -7 -16 -14 -14 -43 -1 -50 22 -4 10 3 11 24 6 16 -4 31 -10 33 -12z m136
6 c-3 -5 -14 -10 -23 -10 -15 0 -15 2 -2 10 20 13 33 13 25 0z m-100 -10 c3
-5 -1 -10 -9 -10 -9 0 -16 5 -16 10 0 6 4 10 9 10 6 0 13 -4 16 -10z m53 -2
c-3 -7 -11 -13 -18 -13 -7 0 -15 6 -17 13 -3 7 4 12 17 12 13 0 20 -5 18 -12z"/>
<path d="M1260 1651 c13 -26 13 -58 -1 -67 -6 -3 -24 3 -40 15 -20 15 -29 18
-29 8 0 -17 57 -71 95 -89 22 -10 30 -20 29 -38 -1 -18 7 -31 30 -45 17 -12
31 -29 31 -40 0 -18 -6 -20 -56 -18 -46 1 -57 -2 -68 -19 -7 -11 -9 -23 -6
-26 12 -13 202 -14 224 -3 29 16 26 38 -8 56 -47 24 -139 139 -147 183 -9 52
-34 102 -50 102 -11 0 -12 -4 -4 -19z"/>
<path d="M1005 1410 c-3 -6 1 -7 9 -4 18 7 21 14 7 14 -6 0 -13 -4 -16 -10z"/>
<path d="M2015 2029 c-17 -11 -23 -19 -15 -19 35 -1 -17 -18 -90 -30 -58 -9
-89 -21 -137 -52 -59 -38 -70 -54 -64 -91 1 -5 -9 -17 -21 -28 l-23 -19 28 10
c38 13 103 13 130 -1 12 -7 43 -31 69 -55 53 -50 65 -52 102 -23 62 49 83 147
47 224 l-19 40 1 -65 c1 -59 -2 -70 -36 -122 -20 -32 -43 -58 -50 -58 -7 0
-32 16 -54 35 -45 38 -81 55 -119 55 -28 0 -32 16 -6 24 15 5 50 -1 107 -19
11 -3 29 1 40 9 12 9 15 15 7 16 -10 0 -10 5 2 22 9 12 16 37 16 55 0 27 4 33
20 33 30 0 78 27 91 51 15 28 9 30 -26 8z m-128 -86 c4 -9 -1 -29 -10 -45 -16
-29 -11 -38 11 -16 7 7 12 27 12 46 0 19 4 31 10 27 13 -8 13 -27 -2 -62 -6
-15 -11 -31 -10 -35 1 -4 -10 -3 -24 2 -14 6 -38 10 -53 10 -15 0 -36 7 -47
15 -16 12 -17 16 -4 24 9 7 19 6 27 -1 17 -14 43 -3 43 19 0 13 -3 14 -12 5
-14 -14 -28 -16 -28 -3 0 9 44 29 68 30 7 1 16 -7 19 -16z"/>
<path d="M2060 2011 c-12 -24 -4 -48 21 -62 16 -8 19 -6 19 13 0 33 -11 68
-21 68 -4 0 -13 -9 -19 -19z"/>
<path d="M950 1980 c-12 -44 -6 -65 11 -40 16 26 22 61 11 72 -7 7 -14 -2 -22
-32z"/>
<path d="M1115 1990 c19 -8 83 -14 74 -6 -2 2 -24 6 -49 9 -30 4 -38 3 -25 -3z"/>
<path d="M1840 1990 c-10 -7 -1 -8 30 -4 56 8 64 14 19 14 -19 0 -41 -5 -49
-10z"/>
<path d="M2203 1780 c1 -153 -2 -193 -16 -229 -24 -60 -22 -74 13 -95 17 -9
28 -21 25 -25 -2 -5 5 -21 17 -36 15 -20 23 -46 26 -88 l5 -60 -31 34 -31 34
-1 -71 c0 -69 1 -71 24 -71 33 0 51 44 51 127 l0 65 22 -25 21 -25 -5 60 c-4
42 -1 71 10 95 8 19 16 28 16 19 1 -9 8 -19 16 -23 18 -7 18 -6 1 35 -9 21
-12 53 -9 88 4 41 0 69 -15 106 -11 28 -20 53 -21 57 -1 9 -91 93 -91 85 0 -2
18 -26 40 -53 47 -57 71 -120 69 -183 -1 -25 -4 -36 -6 -23 -8 43 -21 21 -20
-35 0 -32 -4 -81 -9 -110 l-9 -51 -30 25 c-16 14 -23 22 -15 18 8 -5 5 2 -8
15 -15 14 -21 28 -17 39 4 9 9 28 12 44 7 35 20 43 28 17 3 -11 10 -20 15 -20
5 0 2 17 -6 37 -9 20 -27 113 -40 207 -13 94 -26 178 -28 186 -2 8 -3 -68 -3
-170z"/>
<path d="M1968 1936 c-10 -10 -21 -35 -24 -57 -4 -24 -16 -47 -30 -58 -17 -14
-20 -21 -11 -30 36 -36 90 36 85 116 -3 45 -4 46 -20 29z"/>
<path d="M1043 1884 c10 -95 45 -126 97 -83 l24 21 -24 18 c-13 10 -30 32 -39
50 -9 18 -27 37 -40 42 -24 8 -24 8 -18 -48z"/>
<path d="M2070 1905 c13 -35 24 -149 16 -178 -7 -30 -53 -51 -101 -45 -19 2
-35 3 -35 2 0 -7 100 -64 113 -64 27 0 47 53 47 126 0 69 -26 184 -41 184 -5
0 -4 -11 1 -25z"/>
<path d="M1550 1917 c0 -3 15 -15 34 -26 34 -22 86 -28 86 -11 0 5 -6 7 -14 4
-11 -4 -51 9 -98 34 -5 2 -8 1 -8 -1z"/>
<path d="M1450 1900 c-14 -5 -41 -13 -60 -19 -34 -10 -34 -10 14 -7 26 2 55
11 64 20 18 18 18 18 -18 6z"/>
<path d="M768 1858 c-13 -24 -33 -56 -43 -73 -19 -29 -19 -29 -1 -15 11 8 17
11 15 5 -34 -72 -37 -89 -41 -187 -1 -58 0 -104 5 -101 4 2 7 14 7 26 1 18 4
16 20 -13 13 -25 19 -56 20 -105 1 -62 2 -68 14 -52 13 17 15 13 22 -40 3 -32
10 -67 14 -77 6 -17 8 -15 13 10 4 16 16 40 28 54 17 21 20 21 14 5 -13 -38
-17 -90 -7 -115 9 -24 9 -24 14 7 2 18 0 29 -5 26 -5 -3 -7 3 -4 13 3 11 9 35
12 54 4 19 12 41 19 49 9 12 8 12 -11 3 -12 -7 -32 -26 -46 -43 l-24 -31 -7
73 c-7 68 -9 72 -23 54 -13 -19 -14 -17 -8 16 5 27 1 50 -14 84 -25 56 -26 84
-6 111 14 18 15 16 9 -22 -4 -26 -2 -44 5 -48 6 -4 11 -6 12 -4 2 8 14 248 12
248 -11 0 -38 -77 -44 -124 -4 -32 -13 -63 -19 -70 -10 -9 -11 4 -7 61 6 73
24 121 60 161 14 15 22 37 22 62 1 22 0 40 -1 40 -1 0 -13 -19 -26 -42z m13
-11 c-10 -9 -11 -8 -5 6 3 10 9 15 12 12 3 -3 0 -11 -7 -18z"/>
<path d="M931 1850 c-14 -66 -14 -188 0 -229 22 -63 72 -50 179 49 l45 41 -40
-25 c-22 -14 -62 -30 -89 -36 -44 -10 -52 -9 -69 8 -26 27 -32 93 -15 175 8
37 11 67 7 67 -4 0 -12 -23 -18 -50z"/>
<path d="M1490 1856 c-20 -25 -73 -38 -106 -26 -27 9 -28 9 -10 -5 11 -8 31
-15 45 -15 29 0 91 34 91 50 0 14 -5 13 -20 -4z"/>
<path d="M1554 1855 c11 -8 25 -15 30 -15 6 0 2 7 -8 15 -11 8 -25 15 -30 15
-6 0 -2 -7 8 -15z"/>
<path d="M1460 1763 c-19 -8 -48 -13 -66 -11 -23 3 -30 0 -27 -9 3 -7 0 -26
-6 -41 -7 -16 -8 -39 -3 -57 7 -24 16 -31 45 -37 52 -11 117 -46 117 -62 0 -8
-6 -21 -14 -29 -25 -25 3 -96 35 -85 6 2 17 19 23 38 10 31 9 37 -8 51 -29 24
-14 45 46 67 67 25 78 49 50 112 -18 41 -24 47 -74 63 -64 20 -72 20 -118 0z"/>
<path d="M960 1730 c0 -42 12 -54 47 -48 17 3 16 8 -14 46 l-33 44 0 -42z"/>
<path d="M2046 1733 c-6 -14 -5 -15 5 -6 7 7 10 15 7 18 -3 3 -9 -2 -12 -12z"/>
<path d="M1761 1727 c-40 -20 -62 -60 -70 -128 -4 -34 -13 -65 -19 -67 -36
-12 -77 -50 -80 -75 -2 -15 -13 -34 -25 -42 -12 -8 -18 -15 -14 -15 20 0 49
24 96 81 40 47 51 68 51 95 0 64 45 144 81 144 10 0 21 5 24 10 8 14 -15 12
-44 -3z"/>
<path d="M2275 1681 c7 -63 18 -90 29 -72 11 17 -3 86 -20 108 -14 16 -15 13
-9 -36z"/>
<path d="M1789 1695 c-36 -19 -59 -58 -59 -100 0 -20 -6 -50 -14 -68 -16 -37
-100 -129 -133 -146 -54 -28 -4 -62 82 -57 28 2 74 4 103 4 52 2 52 2 46 30
-4 15 -7 28 -8 29 -1 1 -27 -6 -59 -14 -53 -15 -59 -15 -74 0 -15 15 -15 18 1
36 9 10 37 26 62 36 l44 17 -25 20 c-25 19 -25 21 -9 39 9 11 23 19 30 19 19
0 84 65 84 84 0 15 -2 15 -25 0 -49 -32 -75 9 -33 53 27 28 21 36 -13 18z"/>
<path d="M900 1598 c0 -34 19 -68 35 -62 20 8 19 13 -10 49 -18 22 -25 25 -25
13z"/>
<path d="M1960 1585 c7 -9 27 -25 44 -37 l31 -21 -34 36 c-34 36 -67 53 -41
22z"/>
<path d="M1370 1586 c0 -9 62 -38 98 -47 50 -11 38 4 -20 25 -29 10 -59 21
-65 23 -7 3 -13 3 -13 -1z"/>
<path d="M1600 1560 c-42 -15 -49 -19 -27 -19 28 -1 97 23 97 33 0 8 -7 7 -70
-14z"/>
<path d="M2114 1485 c11 -8 24 -15 29 -15 5 0 7 -17 3 -39 -5 -31 -3 -40 11
-45 16 -6 52 26 53 46 0 3 -23 20 -50 37 -52 32 -80 42 -46 16z"/>
<path d="M2260 1476 c0 -14 5 -26 10 -26 6 0 10 9 10 19 0 11 -4 23 -10 26 -6
4 -10 -5 -10 -19z"/>
<path d="M2045 1416 c28 -14 57 -25 65 -25 17 0 -52 33 -90 42 -14 4 -2 -4 25
-17z"/>
<path d="M818 1370 c4 -39 14 -50 28 -29 3 6 1 16 -4 21 -8 8 -8 17 -1 30 8
14 6 18 -8 18 -16 0 -18 -7 -15 -40z"/>
<path d="M1920 1393 c0 -13 49 -77 97 -128 21 -22 35 -36 31 -31 -13 17 -9 26
10 19 15 -6 16 -5 2 12 -13 17 -11 17 20 -2 30 -19 34 -26 32 -57 -2 -23 1
-36 8 -36 8 0 11 11 8 30 -3 17 -1 30 3 30 11 0 -45 83 -68 101 -15 12 -16 12
-10 -3 3 -10 5 -18 3 -18 -17 0 -95 42 -111 60 -20 22 -19 22 36 -3 54 -24 96
-24 67 1 -7 5 -16 11 -20 11 -5 1 -9 2 -10 2 -2 1 -14 3 -28 4 -14 2 -35 6
-47 10 -13 4 -23 3 -23 -2z m126 -95 c2 -3 -2 -8 -9 -11 -8 -3 -30 8 -48 24
l-34 29 43 -19 c23 -10 45 -20 48 -23z"/>
<path d="M850 1381 c0 -3 14 -12 30 -19 17 -8 30 -20 30 -28 0 -8 6 -11 16 -7
14 5 15 3 5 -15 -7 -12 -9 -22 -6 -22 3 0 -6 -10 -21 -23 -23 -20 -27 -33 -30
-82 -2 -65 9 -56 21 15 6 32 17 53 41 76 34 30 49 59 18 33 -15 -12 -16 -11
-10 7 5 16 0 23 -19 32 -14 6 -25 16 -25 21 0 5 -11 11 -25 13 -14 3 -25 2
-25 -1z"/>
<path d="M2122 1369 c-7 -11 -10 -24 -7 -29 10 -16 29 -11 42 10 11 16 10 21
-5 29 -14 7 -21 5 -30 -10z"/>
<path d="M2191 1351 c-23 -32 -22 -56 1 -33 7 7 20 12 30 12 21 0 23 10 5 34
-13 18 -15 17 -36 -13z"/>
<path d="M2093 1333 c-8 -3 -2 -13 15 -27 37 -31 72 -49 72 -37 0 5 -9 13 -20
16 -11 4 -18 9 -16 13 6 10 -37 39 -51 35z"/>
<path d="M499 1223 c32 -64 43 -148 27 -218 -7 -33 -17 -68 -21 -78 -7 -18 -2
-19 93 -15 86 2 105 6 122 23 22 22 37 103 25 132 -4 10 -8 44 -9 75 -1 49 -5
62 -29 85 -26 26 -34 28 -128 31 l-100 4 20 -39z m173 -47 c4 -6 8 -21 8 -33
0 -21 -5 -23 -45 -23 -38 0 -45 3 -45 20 0 10 -10 28 -21 39 l-21 20 58 -6
c33 -3 62 -11 66 -17z m16 -153 l-3 -38 -50 -3 -51 -3 4 41 4 40 50 0 49 0 -3
-37z"/>
<path d="M628 1013 c7 -3 16 -2 19 1 4 3 -2 6 -13 5 -11 0 -14 -3 -6 -6z"/>
<path d="M2415 1251 c-37 -15 -58 -49 -63 -101 -6 -63 5 -76 74 -91 30 -7 58
-17 63 -23 12 -15 18 -55 9 -56 -68 -4 -86 1 -92 23 -4 18 -13 24 -36 25 -30
1 -31 -1 -24 -31 15 -72 39 -87 137 -87 87 0 90 4 82 84 -10 86 -29 111 -101
127 -46 10 -55 16 -51 31 3 10 1 21 -4 24 -21 13 -6 19 46 19 53 0 56 -1 50
-23 -5 -21 -3 -23 27 -20 30 3 34 7 42 46 7 34 6 46 -5 53 -17 11 -127 11
-154 0z"/>
<path d="M2150 1228 c0 -14 23 -58 32 -58 4 0 8 3 8 8 -1 9 -39 59 -40 50z"/>
<path d="M902 1147 c-7 -20 -18 -37 -23 -37 -5 0 -9 -7 -9 -15 0 -18 9 -19 33
-1 13 10 17 25 15 52 l-3 38 -13 -37z"/>
<path d="M798 1078 c2 -35 -3 -87 -11 -116 l-14 -53 66 3 c61 3 66 5 69 27 3
22 1 23 -36 20 l-39 -4 5 92 c5 93 5 93 -19 93 -23 0 -24 -2 -21 -62z"/>
<path d="M986 1098 c-6 -36 -24 -87 -63 -175 -3 -8 3 -13 14 -13 11 0 24 10
30 21 7 16 18 22 46 23 32 1 37 -2 37 -21 0 -18 6 -23 25 -23 24 0 26 2 20 38
-4 20 -16 72 -27 115 -19 73 -22 77 -48 77 -25 0 -28 -4 -34 -42z m53 -83 c1
-14 -5 -21 -19 -21 -24 0 -23 -2 -8 49 11 38 13 39 19 16 4 -13 7 -33 8 -44z"/>
<path d="M1142 1128 c-8 -8 -12 -47 -12 -109 0 -107 1 -109 66 -109 54 0 74
15 74 55 0 28 -4 35 -20 35 -14 0 -20 -7 -20 -24 0 -19 -5 -23 -29 -22 l-30 1
-3 73 -3 73 35 -3 c26 -2 35 -7 34 -20 -1 -13 5 -18 22 -18 26 0 32 26 14 61
-9 15 -22 19 -63 19 -29 0 -58 -5 -65 -12z"/>
<path d="M1308 1025 c-3 -114 -3 -115 20 -115 17 0 22 6 22 28 0 15 8 39 18
54 l18 27 19 -54 c15 -46 22 -55 42 -55 12 0 23 2 23 4 0 2 -13 34 -29 73
l-28 69 29 43 30 43 -28 -4 c-22 -2 -35 -14 -59 -56 l-30 -54 -3 56 c-3 47 -6
56 -22 56 -17 0 -19 -10 -22 -115z"/>
<path d="M1540 1120 c0 -16 7 -20 30 -20 l30 0 0 -95 c0 -88 1 -95 20 -95 18
0 20 7 20 83 0 51 -5 88 -12 95 -9 9 -4 12 25 12 30 0 37 4 37 20 0 18 -7 20
-75 20 -68 0 -75 -2 -75 -20z"/>
<path d="M1720 1048 c0 -114 6 -138 33 -138 18 0 19 4 13 46 -3 26 -6 78 -6
115 0 62 -2 69 -20 69 -19 0 -20 -7 -20 -92z"/>
<path d="M1809 1119 c-7 -15 -9 -49 -4 -105 5 -67 11 -86 25 -94 26 -14 106
-12 118 3 5 6 8 36 5 65 l-6 52 -38 0 c-35 0 -39 -2 -39 -26 0 -21 4 -25 20
-21 16 4 20 0 20 -19 0 -20 -5 -24 -28 -24 -27 0 -28 2 -38 75 l-9 75 37 0
c31 0 38 -4 38 -20 0 -13 7 -20 20 -20 15 0 20 7 20 28 0 40 -17 52 -77 52
-43 0 -54 -4 -64 -21z"/>
<path d="M1990 1071 c0 -37 3 -89 6 -115 l7 -46 69 0 c60 0 69 2 64 16 -3 9
-6 19 -6 24 0 5 -21 8 -47 7 -46 -2 -48 -1 -51 26 -3 27 -1 28 30 26 34 -3 38
0 38 26 0 10 -10 15 -32 15 -26 0 -36 6 -45 26 l-12 26 55 -4 c50 -3 54 -1 54
20 0 21 -4 22 -65 22 l-65 0 0 -69z"/>
<path d="M2157 1106 c-5 -34 8 -169 18 -187 4 -5 15 -9 27 -9 14 0 18 5 14 16
-3 9 -9 27 -12 40 -10 39 22 29 52 -16 19 -28 34 -40 50 -40 l24 0 -30 42
c-26 36 -28 43 -15 50 19 11 21 108 3 126 -7 7 -38 12 -69 12 l-56 0 -6 -34z
m103 -41 c0 -33 -2 -35 -36 -35 -31 0 -35 2 -29 20 4 12 1 27 -5 35 -11 13 -6
15 29 15 40 0 41 -1 41 -35z"/>
<path d="M1097 1123 c-4 -3 -7 -16 -6 -27 0 -19 1 -19 10 3 10 24 8 36 -4 24z"/>
<path d="M906 1074 c-3 -9 -6 -25 -6 -37 -1 -19 -3 -18 -15 8 -8 19 -14 24
-14 13 -1 -26 21 -68 36 -68 9 0 13 15 13 50 0 52 -4 61 -14 34z"/>
<path d="M1454 1065 c-4 -9 4 -42 16 -75 14 -36 20 -69 16 -84 -5 -22 -2 -27
26 -34 18 -5 35 -8 36 -6 2 1 -7 16 -19 33 -17 23 -24 49 -27 99 -4 61 -13 81
-35 82 -4 0 -10 -7 -13 -15z"/>
<path d="M2330 1065 c0 -8 4 -15 10 -15 5 0 7 7 4 15 -4 8 -8 15 -10 15 -2 0
-4 -7 -4 -15z"/>
<path d="M1523 1008 c5 -58 35 -148 37 -110 0 7 -4 21 -9 30 -5 10 -11 43 -14
75 -2 31 -7 61 -12 65 -4 4 -5 -23 -2 -60z"/>
<path d="M1200 1030 c0 -32 1 -33 17 -17 16 16 16 18 0 34 -16 16 -17 15 -17
-17z"/>
<path d="M1670 988 c0 -81 -8 -121 -21 -112 -5 3 -21 -4 -35 -15 -34 -27 -86
-27 -141 0 -56 27 -69 17 -14 -10 54 -28 129 -28 165 0 33 26 34 10 2 -20 -22
-21 -33 -23 -95 -19 -82 4 -118 25 -137 79 -12 32 -13 32 -13 8 -1 -27 40 -81
69 -91 11 -3 8 -11 -12 -32 -15 -17 -31 -26 -38 -21 -16 10 -40 69 -40 100 0
14 -5 25 -11 25 -16 0 -2 -67 21 -107 11 -18 16 -33 11 -33 -14 0 -35 31 -47
69 l-12 36 2 -50 c2 -44 5 -51 29 -59 19 -7 42 -5 84 8 70 23 141 24 208 4 53
-16 90 -17 102 -3 5 4 2 5 -5 0 -12 -6 -12 -3 -2 15 8 15 15 19 22 12 14 -14
-8 -52 -30 -53 -34 -2 -64 3 -97 17 -48 20 -132 17 -200 -6 -32 -11 -64 -20
-72 -20 -20 0 -63 46 -63 67 0 13 2 15 8 5 5 -7 8 10 8 41 -1 45 -5 55 -23 64
-20 10 -21 7 -27 -41 -7 -58 6 -182 23 -217 12 -23 11 -23 -4 -4 -22 28 -54
142 -57 203 -2 51 -17 74 -19 30 l0 -23 -11 23 c-6 12 -15 22 -20 22 -14 0 -9
-27 8 -44 8 -9 28 -56 43 -106 33 -103 48 -129 92 -161 25 -17 31 -19 26 -7
-5 14 0 13 31 -3 89 -48 124 -82 143 -139 18 -52 18 -53 14 -15 -4 39 -2 41
52 80 31 22 59 39 63 38 4 -1 18 9 30 22 13 14 29 25 35 25 7 0 12 14 13 31 1
29 0 30 -13 13 -8 -11 -15 -15 -15 -9 0 5 -7 -1 -16 -13 -8 -12 -45 -45 -81
-72 l-66 -50 -41 32 c-22 17 -51 43 -64 57 -18 21 -21 22 -16 6 7 -19 6 -19
-18 3 -13 12 -31 22 -40 22 -8 0 -20 10 -27 23 -11 22 -11 22 -6 -3 6 -24 5
-24 -9 -6 -9 11 -16 32 -16 48 0 15 -4 28 -10 28 -5 0 -9 21 -9 48 1 26 4 38
6 27 14 -58 58 -67 161 -35 81 25 117 25 192 -1 63 -22 98 -20 123 6 13 13 16
13 21 -1 7 -18 -3 -64 -13 -64 -4 0 -15 -17 -25 -37 -24 -51 2 -27 33 30 24
45 24 45 7 100 -10 31 -16 66 -13 79 2 15 6 4 12 -29 4 -29 11 -53 16 -53 12
0 11 28 -2 88 -9 42 -13 49 -29 45 -16 -4 -18 -11 -13 -31 4 -17 2 -23 -6 -18
-6 4 -11 1 -11 -9 0 -26 -29 -75 -45 -75 -12 0 -11 6 5 33 20 32 27 92 12 101
-4 2 -6 -10 -4 -27 3 -32 -28 -97 -46 -97 -5 0 -17 9 -27 20 -17 19 -17 21 -2
33 9 6 24 30 33 52 18 45 29 195 14 195 -6 0 -10 -32 -10 -72z m-375 -162 c-4
-20 -12 -36 -17 -36 -9 0 -2 54 9 73 10 17 14 -2 8 -37z m332 -52 c3 -8 -10
-9 -47 -2 -32 6 -63 5 -87 -1 -39 -11 -49 -9 -38 9 9 15 167 9 172 -6z"/>
<path d="M1006 908 c4 -7 16 -23 26 -35 13 -14 21 -38 21 -66 1 -25 -1 -43 -4
-41 -3 2 -17 26 -30 53 -16 34 -26 46 -32 38 -6 -8 -7 -4 -4 10 3 15 1 20 -8
17 -10 -4 -10 -12 -2 -34 8 -20 14 -25 19 -17 5 8 8 7 8 -5 0 -10 13 -32 29
-50 16 -18 39 -57 51 -86 13 -29 25 -50 28 -47 3 3 13 -9 23 -25 11 -17 25
-30 33 -30 8 0 18 -10 22 -22 9 -31 55 -110 61 -105 2 3 -21 54 -51 113 -30
60 -55 105 -55 101 -1 -4 6 -22 15 -38 8 -17 13 -33 11 -36 -10 -9 -40 49 -58
110 -10 34 -18 53 -18 42 -1 -11 3 -36 9 -54 18 -65 1 -43 -19 24 -35 111 -29
117 42 40 34 -37 70 -83 79 -101 20 -36 59 -194 52 -206 -6 -9 28 -78 38 -78
5 0 4 9 -2 20 -6 10 -19 63 -30 116 -26 127 -49 174 -117 248 -32 34 -74 83
-93 109 -32 42 -62 66 -44 35z"/>
<path d="M1570 885 c-10 -12 -10 -15 3 -15 19 0 31 16 18 24 -5 3 -14 -1 -21
-9z"/>
<path d="M1956 869 c-10 -17 -32 -46 -48 -65 -17 -19 -23 -32 -14 -28 20 8 89
101 84 114 -2 6 -12 -3 -22 -21z"/>
<path d="M1090 872 c0 -9 62 -69 95 -92 11 -8 -2 11 -30 42 -48 54 -65 67 -65
50z"/>
<path d="M1140 866 c0 -8 4 -17 9 -20 5 -4 7 3 4 14 -6 23 -13 26 -13 6z"/>
<path d="M1851 860 c-2 -40 -50 -213 -67 -238 -9 -13 -13 -26 -11 -29 10 -9
35 42 57 112 36 117 51 155 61 149 5 -3 9 2 9 10 0 24 -21 19 -28 -6 -6 -23
-6 -23 -13 2 l-7 25 -1 -25z"/>
<path d="M1959 797 c-72 -89 -109 -153 -109 -189 0 -13 -11 -65 -25 -116 -30
-111 -30 -119 -4 -69 11 21 17 43 13 49 -4 6 -3 8 4 4 13 -8 103 161 95 180
-6 17 -23 8 -23 -12 0 -15 -61 -156 -65 -152 -5 6 32 164 44 185 6 12 39 57
72 100 34 43 66 84 72 91 5 6 6 12 1 12 -5 -1 -39 -38 -75 -83z"/>
<path d="M2051 810 c-12 -40 -25 -70 -27 -67 -2 2 1 18 7 35 6 17 9 39 7 49
-2 10 -10 -6 -16 -35 -22 -98 -51 -133 -65 -77 -3 11 -5 1 -6 -23 -1 -39 0
-42 19 -32 30 16 69 73 89 131 12 34 20 46 23 33 2 -13 7 -8 15 19 6 20 7 37
2 37 -5 0 -9 -8 -10 -17 0 -17 -1 -17 -8 0 -5 13 -13 -1 -30 -53z"/>
<path d="M1870 744 c0 -8 5 -12 10 -9 6 3 10 10 10 16 0 5 -4 9 -10 9 -5 0
-10 -7 -10 -16z"/>
<path d="M1976 724 c-4 -14 -5 -28 -3 -31 3 -2 8 8 11 23 4 14 5 28 3 31 -3 2
-8 -8 -11 -23z"/>
<path d="M1484 694 c-6 -3 -9 -15 -7 -28 4 -19 11 -23 42 -22 34 1 38 4 39 29
1 27 -20 38 -33 17 -3 -5 -1 -10 6 -10 10 0 10 -3 2 -11 -7 -7 -19 -8 -30 -4
-12 5 -14 9 -5 12 6 3 12 9 12 14 0 9 -8 10 -26 3z"/>
<path d="M1410 681 c-14 -4 -25 -12 -24 -19 3 -38 5 -41 20 -35 13 5 13 7 2
14 -10 7 -10 9 2 9 13 0 13 1 0 10 -17 11 -1 13 25 4 13 -5 14 -8 3 -15 -9 -6
-6 -9 11 -9 17 0 22 4 17 16 -3 9 -6 20 -6 25 0 10 -13 10 -50 0z"/>
<path d="M1570 665 c0 -19 5 -25 23 -24 12 1 30 -2 40 -6 13 -6 16 -4 11 9 -4
10 -13 15 -20 12 -9 -3 -14 2 -14 14 0 13 -7 20 -20 20 -15 0 -20 -7 -20 -25z
m30 6 c0 -6 -4 -13 -10 -16 -5 -3 -10 1 -10 9 0 9 5 16 10 16 6 0 10 -4 10 -9z"/>
<path d="M1620 681 c0 -6 5 -12 10 -12 6 -1 16 -2 23 -3 7 -1 11 -12 9 -26 -3
-17 0 -22 6 -15 17 17 18 48 2 50 -8 2 -23 6 -32 10 -11 4 -18 3 -18 -4z"/>
<path d="M1710 665 c0 -13 4 -14 20 -5 11 6 20 13 20 15 0 3 -9 5 -20 5 -11 0
-20 -7 -20 -15z"/>
<path d="M1330 658 c0 -7 9 -19 21 -26 19 -12 19 -11 10 7 -14 26 -31 36 -31
19z"/>
<path d="M1465 610 c-8 -13 53 -50 82 -50 28 0 52 38 32 51 -19 12 -106 11
-114 -1z"/>
<path d="M1766 553 c-50 -63 -101 -151 -93 -160 3 -3 14 12 25 34 11 21 43 69
72 107 63 84 60 99 -4 19z"/>
<path d="M1442 585 c4 -21 58 -62 97 -72 19 -5 30 1 53 26 15 17 28 39 28 49
-1 10 -9 1 -21 -20 -15 -29 -26 -38 -45 -38 -33 0 -79 24 -99 52 -15 21 -16
21 -13 3z"/>
<path d="M1280 557 c0 -4 20 -29 45 -55 25 -26 53 -64 63 -84 9 -21 20 -38 25
-38 17 0 -44 98 -87 140 -25 24 -46 41 -46 37z"/>
<path d="M1365 520 c3 -5 14 -10 23 -10 15 0 15 2 2 10 -20 13 -33 13 -25 0z"/>
<path d="M1692 518 c-7 -7 -12 -16 -12 -20 0 -15 15 -8 28 12 13 22 3 27 -16
8z"/>
<path d="M1632 477 c-27 -28 -29 -47 -4 -24 10 10 22 14 25 10 4 -3 7 3 7 15
0 27 -2 27 -28 -1z"/>
<path d="M1387 475 c6 -11 22 -30 35 -43 23 -21 25 -21 23 -3 -1 21 -25 54
-33 46 -3 -3 -12 1 -20 8 -13 10 -14 9 -5 -8z"/>
</g>
</svg>
