<?xml version="1.0" standalone="no"?>
<!DOCTYPE svg PUBLIC "-//W3C//DTD SVG 20010904//EN"
 "http://www.w3.org/TR/2001/REC-SVG-20010904/DTD/svg10.dtd">
<svg version="1.0" xmlns="http://www.w3.org/2000/svg"
 width="300.000000pt" height="300.000000pt" viewBox="0 0 300.000000 300.000000"
 preserveAspectRatio="xMidYMid meet">
<metadata>
Created by potrace 1.10, written by Peter Selinger 2001-2011
</metadata>
<g transform="translate(0.000000,300.000000) scale(0.100000,-0.100000)"
fill="#000000" stroke="none">
<path d="M875 2640 c-44 -18 -103 -85 -115 -130 -24 -88 12 -246 65 -290 9 -8
20 -22 24 -32 5 -13 10 -15 21 -7 11 8 12 12 3 16 -7 2 -13 9 -13 14 0 6 10 3
22 -5 26 -19 41 -12 123 59 62 54 103 80 112 72 3 -3 -8 -12 -24 -20 -15 -9
-44 -32 -63 -52 -19 -21 -48 -46 -65 -56 -16 -10 -24 -19 -17 -19 7 0 -20 -33
-60 -73 -65 -64 -124 -147 -144 -201 -4 -10 32 22 81 72 48 50 91 90 95 89 5
-1 22 14 39 33 l31 35 -35 -75 c-28 -59 -37 -96 -45 -175 -13 -128 -20 -165
-31 -165 -5 0 -9 51 -9 113 0 63 -4 117 -10 123 -7 7 2 24 26 53 20 23 34 44
32 47 -5 4 -106 -106 -180 -194 -35 -42 -40 -40 -24 6 33 91 81 169 148 236
65 65 67 68 37 62 -55 -11 -170 -157 -205 -260 -13 -38 -14 -53 -5 -73 6 -13
9 -29 6 -34 -16 -25 -31 -230 -21 -284 13 -65 26 -25 26 78 1 70 5 110 15 127
17 30 19 44 5 35 -16 -10 -12 0 23 53 17 28 37 58 42 67 8 14 10 12 11 -9 1
-14 -1 -24 -5 -21 -4 2 -7 -6 -6 -18 1 -12 -9 -36 -22 -54 -39 -51 -68 -175
-46 -196 9 -10 33 42 33 74 0 15 5 31 10 34 6 4 10 -12 10 -40 0 -25 -4 -44
-9 -41 -10 6 -31 -37 -31 -63 0 -11 9 -38 20 -62 11 -24 20 -57 20 -72 0 -16
4 -26 9 -23 9 6 21 -49 21 -104 l0 -35 26 33 c14 17 35 37 47 44 19 9 20 9 11
-3 -7 -8 -15 -30 -19 -49 -3 -19 -9 -43 -12 -54 -3 -10 -1 -16 4 -13 5 3 7 -8
5 -26 -5 -31 -5 -31 -14 -7 -5 14 -7 44 -4 68 3 23 3 42 0 42 -3 0 -13 -18
-23 -41 -10 -22 -21 -37 -24 -32 -2 4 -8 39 -12 76 -6 61 -8 66 -21 50 -12
-16 -13 -11 -14 45 0 34 -7 79 -15 100 l-16 37 -13 -25 c-11 -21 -10 -28 1
-41 7 -8 13 -37 13 -62 0 -28 8 -62 20 -84 17 -33 26 -63 18 -63 -2 0 -25 11
-52 25 -39 20 -64 25 -120 25 -118 0 -143 -27 -112 -117 19 -55 21 -155 4
-218 -11 -42 -10 -46 12 -70 21 -23 31 -25 107 -25 58 0 94 5 115 16 29 15 34
15 60 -1 21 -12 46 -16 89 -13 l60 3 49 -70 c27 -38 58 -89 70 -112 12 -23 43
-67 70 -97 27 -31 63 -82 80 -115 17 -32 44 -74 60 -92 24 -28 31 -32 47 -23
11 7 18 24 19 43 1 45 9 47 39 8 14 -20 33 -38 41 -41 24 -9 -23 71 -73 125
-25 27 -41 49 -36 49 19 0 84 -72 109 -122 l25 -50 25 23 25 23 25 -32 c33
-41 51 -41 70 3 12 31 19 35 45 33 17 -1 36 -10 43 -20 11 -15 15 -13 33 25
26 53 110 167 123 167 5 0 -16 -35 -46 -77 -64 -89 -89 -133 -75 -133 5 0 28
21 51 47 l42 48 -6 -41 c-5 -33 -2 -45 14 -59 19 -17 21 -17 40 0 11 10 43 61
71 114 33 62 68 112 100 141 34 32 63 75 99 147 47 94 53 101 74 93 14 -5 31
-3 46 5 20 11 29 11 51 0 22 -12 30 -12 53 0 24 13 31 13 56 0 18 -9 57 -15
100 -15 66 0 74 2 102 30 29 29 30 33 23 88 -4 31 -14 73 -22 94 -14 34 -13
39 6 65 55 75 26 142 -67 151 -67 6 -112 -3 -156 -33 l-36 -24 0 27 c0 16 7
37 15 48 8 10 15 39 15 63 0 31 6 51 21 67 19 21 20 26 9 140 -6 66 -10 128
-10 139 1 53 6 92 14 107 13 28 -11 81 -95 208 -91 137 -93 148 -45 252 15 35
26 78 27 110 3 61 -20 146 -33 126 -6 -10 -8 -10 -8 2 0 8 -3 26 -7 39 -4 17
-3 22 6 17 19 -12 51 -84 51 -116 0 -18 4 -29 10 -25 14 9 12 85 -3 115 -7 13
-32 39 -55 57 -71 54 -108 45 -228 -53 -71 -57 -101 -70 -123 -50 -27 24 -203
94 -265 105 -41 8 -79 8 -125 1 -81 -13 -198 -47 -206 -60 -8 -13 -7 -13 120
11 129 25 216 22 318 -11 90 -28 79 -37 -15 -12 -40 11 -90 23 -111 27 -50 8
-317 -35 -317 -51 0 -11 -127 -64 -153 -64 -29 0 -136 61 -172 99 -21 23 -49
41 -60 41 -21 0 -57 -32 -88 -80 -19 -27 -24 -125 -7 -135 6 -3 10 -12 10 -18
0 -7 -4 -6 -10 3 -8 11 -9 7 -4 -15 10 -47 43 -94 70 -101 37 -9 29 -27 -8
-19 -38 8 -39 9 -42 27 -1 7 -10 28 -20 46 -24 46 -31 155 -14 212 8 25 16 43
19 40 3 -3 22 10 43 28 20 17 46 32 57 32 12 0 44 -23 72 -50 53 -52 118 -90
154 -90 17 0 53 10 122 35 34 13 -2 15 -61 4 -60 -11 -66 -10 -113 14 -28 14
-63 39 -80 57 -50 53 -88 68 -130 50z m1334 -34 c13 -16 29 -206 16 -194 -4 4
-26 -15 -48 -43 -21 -27 -42 -48 -44 -45 -3 3 -17 0 -32 -5 -28 -11 -27 -10
40 44 68 53 82 90 68 172 -10 62 -13 65 -39 65 -28 0 -80 -30 -137 -81 -33
-29 -101 -53 -131 -47 -9 2 6 10 35 17 30 7 67 26 90 45 95 82 155 105 182 72z
m-1275 -68 c3 -13 7 -35 10 -50 7 -33 59 -86 92 -94 30 -8 45 4 22 17 -35 20
-79 62 -94 91 -23 43 -10 45 16 3 29 -47 104 -103 108 -82 2 11 20 16 60 19
31 2 59 2 62 0 10 -8 -75 -72 -108 -82 -39 -10 -83 7 -141 56 -35 29 -85 119
-76 134 12 19 45 10 49 -12z m1240 6 c13 -34 4 -56 -42 -104 -32 -33 -56 -50
-73 -50 -13 0 -34 -6 -45 -14 -18 -13 -28 -11 -92 20 -40 19 -72 39 -72 44 0
14 37 22 75 14 28 -5 34 -10 30 -24 -8 -24 19 -44 50 -36 40 10 102 76 114
124 12 44 42 59 55 26z m-84 -39 c-25 -40 -94 -95 -119 -95 -9 0 7 16 36 35
28 18 61 50 73 70 12 20 25 34 27 31 3 -3 -5 -21 -17 -41z m-1191 -68 c27 -44
68 -75 124 -93 l42 -14 -42 4 c-48 5 -91 32 -129 81 -27 36 -47 102 -36 119 4
6 9 -5 12 -25 4 -20 16 -52 29 -72z m741 92 c27 -6 50 -15 50 -20 0 -5 -12 -6
-27 -2 -16 5 -91 8 -167 8 -123 0 -135 1 -100 12 50 15 178 16 244 2z m-803
-67 c-2 -69 21 -116 76 -151 20 -13 36 -26 34 -27 -2 -2 -19 1 -39 6 -40 11
-88 45 -88 62 0 7 12 1 27 -13 l26 -24 -22 30 c-26 36 -36 90 -27 139 10 52
14 44 13 -22z m1014 42 c47 -8 42 -24 -7 -24 -23 0 -33 -4 -28 -11 3 -6 -6 -3
-22 7 -24 16 -25 19 -10 22 16 3 16 6 5 14 -11 8 -10 9 4 4 10 -3 36 -9 58
-12z m-106 -40 c25 -13 49 -36 64 -63 13 -23 26 -40 29 -36 3 3 0 11 -6 17
-23 23 -12 31 12 9 13 -12 25 -18 27 -12 4 11 128 -65 163 -99 41 -41 8 -25
-74 33 -47 33 -80 54 -73 46 6 -8 11 -18 12 -22 0 -5 17 -22 38 -38 51 -40 63
-58 63 -91 0 -27 -19 -41 -21 -15 -1 6 -3 22 -4 34 -1 11 -17 34 -36 51 -71
62 -99 84 -99 77 0 -4 -21 9 -47 28 -70 49 -128 70 -195 68 -77 -2 -98 -2
-162 0 -66 2 -148 -34 -203 -89 -28 -27 -34 -30 -28 -13 11 35 -6 25 -86 -51
-52 -50 -79 -83 -83 -105 -5 -23 -13 -31 -27 -30 -10 1 -19 3 -19 5 0 32 186
215 212 209 10 -3 20 2 23 12 10 32 62 72 111 86 33 9 102 12 209 11 140 -1
165 -4 200 -22z m458 -4 c-8 -28 -68 -87 -115 -111 -31 -16 -46 -18 -62 -11
-20 10 -20 11 3 11 45 2 110 41 143 87 36 50 38 52 31 24z m47 -84 c-13 -67
-32 -109 -63 -143 -18 -20 -18 -23 -4 -23 23 0 21 -15 -3 -26 -19 -8 -17 -14
35 -82 83 -111 164 -256 151 -270 -3 -2 -21 5 -41 16 -19 12 -35 19 -35 16 0
-12 62 -94 78 -103 11 -7 12 -10 4 -11 -22 0 -73 40 -66 52 4 6 2 8 -4 5 -11
-8 -62 47 -62 66 0 6 12 -6 26 -26 35 -52 40 -41 8 16 -14 26 -23 47 -19 47 3
0 22 -12 41 -26 19 -15 34 -25 34 -23 0 2 -46 52 -103 110 -56 58 -110 121
-120 140 l-18 34 25 -30 c57 -68 207 -218 196 -195 -55 109 -118 183 -202 241
-32 22 -58 44 -58 50 0 5 19 -3 43 -19 59 -40 76 -49 60 -31 -18 18 -16 29 5
29 16 1 16 1 -1 11 -17 10 -16 12 8 31 23 18 65 86 65 104 0 4 -12 -4 -27 -18
-35 -32 -66 -48 -92 -48 -27 0 -27 26 1 41 18 10 20 9 15 -5 -10 -25 17 -20
53 10 36 31 70 92 71 131 1 20 3 22 6 9 3 -10 0 -46 -7 -80z m-825 38 c-21 -8
-42 -18 -45 -23 -7 -12 -50 -24 -50 -14 1 29 44 53 95 52 l40 0 -40 -15z m245
3 c14 -7 27 -21 29 -32 3 -17 1 -18 -13 -6 -9 7 -16 10 -16 6 0 -4 -7 -2 -15
5 -8 7 -32 18 -52 26 l-38 13 40 0 c22 1 51 -5 65 -12z m-102 -20 c20 -13 14
-21 -21 -32 -21 -7 -42 -7 -62 -1 -41 14 -42 16 -24 30 19 13 87 15 107 3z
m223 -55 c38 -25 46 -36 58 -83 20 -79 20 -123 -1 -127 -13 -2 -25 12 -45 55
-17 35 -36 60 -48 63 -45 12 -64 33 -58 64 7 36 20 56 37 56 7 0 32 -13 57
-28z m-463 6 c23 -23 13 -57 -29 -100 -22 -23 -50 -60 -61 -83 -26 -51 -23
-49 -48 -35 -20 11 -21 18 -18 89 5 87 11 101 40 101 11 0 31 9 45 20 29 23
54 25 71 8z m163 -27 c4 -3 9 -21 13 -39 5 -31 4 -33 -17 -26 -51 15 -112 50
-115 65 -2 13 6 15 55 11 32 -2 61 -7 64 -11z m167 -5 c-2 -14 -21 -27 -62
-43 -32 -13 -60 -22 -63 -20 -2 2 -1 22 3 43 l6 39 59 1 c54 0 60 -2 57 -20z
m247 -61 c45 -62 63 -110 64 -170 l1 -40 -47 3 c-46 3 -51 1 -127 -62 -43 -36
-81 -66 -85 -66 -4 0 -8 20 -10 45 -1 25 -8 60 -16 80 -8 19 -15 49 -15 67 0
32 1 31 26 -22 27 -58 31 -89 20 -130 l-7 -25 21 24 c29 34 34 66 22 135 -12
61 -7 132 9 142 5 3 9 -11 9 -32 0 -20 7 -57 17 -83 15 -44 15 -48 -5 -96
l-21 -50 22 30 c43 58 95 105 116 105 19 0 21 4 15 43 -3 23 -18 68 -33 100
-15 31 -25 57 -22 57 3 0 24 -25 46 -55z m-758 -2 c-17 -33 -26 -146 -11 -149
5 -1 21 -5 36 -8 20 -5 41 -26 73 -74 25 -37 45 -65 45 -62 0 3 -9 33 -20 68
-18 58 -19 66 -5 99 8 19 15 46 15 59 0 12 5 26 11 30 9 5 10 -20 5 -99 -7
-104 2 -168 28 -207 5 -8 -25 19 -67 60 l-78 75 -55 0 -56 0 5 56 c4 49 40
140 70 177 17 21 19 6 4 -25z m263 -27 c81 -20 95 -27 98 -46 3 -21 1 -22 -40
-15 -44 7 -130 48 -149 72 -14 16 -20 17 91 -11z m300 16 c0 -5 -13 -20 -28
-35 -27 -26 -123 -54 -143 -41 -24 14 -5 34 49 49 31 9 68 20 82 25 33 11 40
12 40 2z m346 -98 c-3 -9 -6 -29 -6 -46 0 -22 -4 -29 -17 -26 -25 5 -36 65
-14 78 25 15 44 12 37 -6z m-578 -17 c23 -18 14 -89 -19 -145 -38 -67 -52 -60
-16 7 32 58 34 87 7 121 -11 14 -20 28 -20 32 0 9 29 -1 48 -15z m152 16 c0
-3 -8 -15 -17 -26 -23 -25 -22 -91 3 -137 l19 -35 5 45 5 45 22 -60 c24 -63
21 -78 -14 -69 -15 4 -32 27 -53 71 -37 80 -40 135 -8 157 24 17 38 20 38 9z
m450 -11 c0 -4 25 -40 55 -81 43 -57 53 -76 44 -87 -7 -9 -9 -50 -4 -135 7
-101 5 -121 -6 -117 -10 3 -17 41 -25 139 -10 120 -15 143 -47 212 -20 42 -31
77 -26 77 5 0 9 -3 9 -8z m-721 -83 c-11 -16 -23 -45 -26 -65 -5 -29 -8 -33
-15 -20 -9 17 -1 53 30 126 14 34 15 34 23 12 7 -18 4 -31 -12 -53z m-348 -20
c13 -32 46 -49 75 -38 30 11 104 -1 104 -16 0 -7 10 -15 23 -19 12 -3 37 -19
55 -36 18 -16 40 -30 48 -30 9 0 14 -10 14 -27 0 -35 36 -73 70 -73 15 0 48 9
74 21 30 13 71 21 116 22 92 3 95 -9 5 -26 -26 -5 60 -30 95 -28 14 1 42 2 63
3 23 1 33 5 25 10 -10 6 -10 8 0 8 8 0 28 -17 45 -37 18 -21 45 -50 61 -65 15
-15 25 -28 21 -28 -5 0 0 -9 10 -20 10 -11 23 -20 29 -20 6 0 0 9 -14 20 -14
11 -20 20 -14 20 6 0 32 -16 57 -35 91 -70 129 -72 159 -10 32 65 38 55 13
-22 -21 -66 -23 -68 -58 -71 -30 -3 -41 3 -80 42 -25 26 -53 46 -63 46 -14 0
-12 -5 11 -19 17 -10 39 -29 50 -42 18 -22 17 -21 -17 4 -42 31 -48 33 -48 13
0 -21 26 -38 61 -41 43 -3 81 -57 80 -112 0 -5 10 -13 22 -20 36 -20 4 -15
-52 9 -36 14 -48 24 -39 29 7 5 8 9 2 9 -25 0 -21 -15 12 -55 37 -46 30 -63
-16 -40 -14 7 -36 16 -50 20 -23 7 -24 7 -10 -10 12 -14 90 -55 106 -55 2 0 0
8 -3 18 -6 15 -5 16 11 2 32 -25 62 -83 64 -122 2 -23 -2 -38 -8 -38 -7 0 -10
14 -8 36 2 31 -2 38 -32 57 -19 12 -31 16 -26 9 4 -6 3 -19 -1 -27 -7 -12 -16
-6 -46 30 -21 24 -37 46 -35 47 1 2 -9 15 -23 29 -15 14 -28 32 -31 40 -3 8
-8 11 -12 8 -4 -4 5 -24 19 -45 27 -39 28 -91 4 -121 -9 -10 -8 -13 4 -13 11
0 14 -6 11 -15 -4 -8 0 -23 7 -33 12 -15 12 -16 -1 -6 -8 5 -25 9 -38 8 -26
-2 -26 -2 4 77 11 29 15 52 9 65 -6 15 -11 8 -21 -34 -15 -67 -34 -112 -45
-112 -12 0 -11 8 6 55 27 75 14 80 -19 9 -18 -39 -39 -75 -46 -79 -10 -6 -11
-3 -5 11 12 29 24 98 19 106 -3 5 -19 8 -36 8 -25 0 -29 -3 -23 -17 4 -10 11
-35 15 -55 7 -38 7 -38 -27 -38 l-34 0 3 53 c3 52 3 52 -29 55 -32 3 -32 3
-22 -30 21 -73 18 -77 -68 -80 l-78 -3 -3 -37 c-4 -49 -22 -49 -19 0 2 37 2
37 -41 40 -24 2 -50 -2 -58 -9 -26 -21 -31 35 -9 94 6 14 1 17 -30 17 l-38 0
7 -49 c6 -46 5 -49 -18 -53 -19 -4 -26 0 -30 18 -3 12 -1 35 4 49 12 32 6 45
-21 45 -15 0 -19 -7 -19 -31 0 -17 5 -39 11 -51 13 -24 1 -40 -12 -15 -6 9
-14 15 -19 12 -5 -3 -12 6 -16 21 -4 15 -13 39 -20 53 -13 24 -14 24 -14 5 0
-12 7 -38 15 -57 19 -45 19 -43 -8 -43 -26 0 -28 8 -30 104 -1 34 -4 58 -5 52
-2 -6 -9 -7 -15 -3 -6 4 -8 0 -4 -11 5 -13 3 -15 -11 -8 -13 7 -23 2 -42 -21
-14 -17 -20 -28 -14 -24 7 4 25 0 40 -8 16 -8 22 -15 14 -15 -12 -1 -12 -3 2
-14 16 -12 15 -15 -6 -50 -12 -20 -25 -34 -29 -30 -3 4 3 20 15 37 12 17 17
27 10 23 -7 -4 -12 -2 -12 3 0 18 -19 13 -44 -11 -22 -21 -46 -34 -46 -24 0
14 13 35 20 31 9 -6 45 33 38 41 -3 3 -13 -3 -22 -12 -16 -15 -17 -15 -10 10
3 14 2 26 -3 26 -33 0 -63 -67 -63 -142 0 -20 -5 -40 -11 -44 -20 -12 -1 115
25 168 l22 47 -73 76 c-74 76 -74 77 -99 60 -14 -9 -28 -14 -31 -11 -3 3 8 13
26 23 27 16 30 22 25 48 -6 30 -24 59 -24 39 0 -6 -7 -19 -16 -30 -15 -18 -15
-18 -9 6 4 14 11 81 15 150 19 261 24 307 31 275 4 -16 7 -78 8 -136 0 -58 6
-131 11 -162 12 -63 63 -192 86 -218 13 -15 13 -17 -8 -22 -12 -4 -20 -9 -16
-12 10 -10 53 16 63 37 6 12 19 22 30 23 11 1 34 5 50 9 23 5 25 4 10 -3 -14
-7 -15 -10 -5 -10 8 0 21 3 28 8 10 6 5 12 -18 21 -27 11 -33 10 -50 -5 -22
-20 -28 -8 -7 15 6 8 -1 4 -18 -10 -16 -14 -23 -17 -15 -7 12 16 12 20 -1 28
-8 5 -20 7 -26 4 -7 -2 -20 -2 -29 2 -12 4 -3 12 32 29 67 32 238 209 239 248
0 5 6 11 14 14 8 3 11 1 8 -4 -3 -5 12 -8 33 -6 30 3 44 -2 70 -25 44 -40 32
-58 -19 -30 -32 17 -43 19 -62 10 l-24 -12 25 0 c53 -2 71 -27 100 -138 9 -35
17 -45 56 -63 57 -28 74 -45 74 -76 0 -17 7 -25 24 -30 21 -5 25 -13 28 -47 3
-37 7 -44 38 -59 29 -13 55 -15 150 -11 102 5 119 9 148 31 50 38 36 71 -19
42 -10 -6 -19 -7 -19 -2 0 13 23 31 63 51 41 20 49 51 13 51 -30 0 -42 -16
-27 -34 9 -10 6 -12 -12 -9 -20 4 -109 -18 -169 -42 -11 -4 -18 -3 -18 4 0 6
4 11 10 11 5 0 35 12 67 26 32 15 65 28 73 30 20 4 81 74 74 85 -9 15 -37 10
-59 -11 -12 -12 -40 -23 -61 -26 -29 -4 -35 -3 -24 5 8 6 22 11 31 11 22 0 88
66 95 95 13 54 -14 70 -60 34 -32 -25 -33 -39 -3 -39 19 -1 14 -8 -33 -50 -51
-46 -54 -51 -42 -71 16 -24 18 -21 -34 -47 -48 -24 -60 -45 -38 -67 18 -18 27
-18 74 -5 27 8 38 7 50 -5 24 -25 0 -31 -110 -31 -112 1 -143 15 -102 44 97
69 136 121 147 197 4 28 14 63 23 78 l17 28 5 -24 5 -25 39 34 39 33 -36 36
c-26 26 -43 35 -69 35 -34 0 -78 -23 -78 -41 0 -6 12 -1 26 10 15 12 38 20 53
20 23 -2 24 -2 3 -6 -12 -2 -38 -19 -57 -38 -28 -26 -34 -29 -29 -13 4 14 2
18 -5 14 -6 -4 -11 -3 -11 3 0 5 5 13 10 16 20 13 8 21 -74 49 -82 29 -86 29
-123 13 -68 -29 -81 -30 -117 -8 -27 17 -45 20 -91 16 -51 -3 -63 -9 -99 -43
-54 -52 -79 -64 -108 -53 -45 17 -88 90 -88 149 0 34 30 126 38 117 3 -3 6
-36 7 -74 2 -77 24 -126 67 -150 25 -15 28 -13 72 27 31 28 55 42 76 43 16 1
35 3 40 4 6 1 15 3 21 4 8 1 8 5 0 15 -9 11 -26 13 -64 9 -60 -6 -86 9 -115
67 -9 19 -26 37 -37 39 -57 10 -106 84 -88 133 7 22 8 21 11 -7 1 -16 7 -42
13 -56z m419 22 c0 -10 -7 -36 -16 -56 -8 -21 -13 -46 -11 -55 3 -12 -4 -22
-18 -28 -45 -21 -47 15 -5 98 30 60 50 76 50 41z m607 -34 c-14 -21 -35 -33
-88 -50 -10 -3 -19 -21 -23 -44 -3 -21 -8 -46 -9 -57 -5 -27 -34 -40 -65 -28
-43 17 -79 22 -96 16 -24 -9 -19 -24 8 -24 37 0 73 -17 120 -55 24 -19 48 -35
55 -35 6 0 28 26 48 58 34 52 37 63 35 121 -2 67 7 71 27 12 25 -77 2 -165
-55 -210 -37 -29 -48 -27 -97 17 -23 21 -53 46 -67 55 -28 19 -95 22 -137 6
l-28 -10 25 26 c14 15 24 28 23 31 -13 21 4 46 55 80 44 29 77 42 142 54 53
10 85 21 85 29 0 12 46 43 54 35 2 -2 -3 -14 -12 -27z m-497 14 c0 -5 15 -31
33 -59 27 -40 30 -48 15 -44 -10 2 -18 -1 -18 -7 0 -15 68 -44 86 -37 8 3 14
1 14 -4 0 -17 -53 -11 -86 9 -29 18 -33 18 -48 3 -12 -13 -20 -14 -34 -6 -12
8 -25 7 -47 -2 -36 -16 -108 -19 -85 -4 8 5 25 10 37 10 35 0 79 20 65 29 -9
5 -4 22 20 64 31 52 48 70 48 48z m690 -241 c12 -91 30 -189 39 -217 10 -29
15 -53 11 -53 -5 0 -10 7 -14 15 -10 26 -21 16 -33 -27 -11 -42 -8 -68 8 -68
5 0 9 -6 9 -12 0 -7 11 -21 24 -30 l24 -17 7 52 c4 29 7 78 6 110 -1 56 13 79
22 35 2 -13 5 -4 6 19 1 54 -24 128 -58 172 -53 68 -55 75 -6 33 60 -53 86
-122 83 -222 -1 -37 4 -75 11 -88 16 -30 4 -44 -15 -18 -13 18 -14 18 -25 -10
-6 -17 -8 -53 -5 -88 l6 -60 -22 22 -23 21 0 -62 c0 -80 -18 -124 -51 -124
-23 0 -24 2 -24 71 l1 71 29 -33 30 -32 0 46 c0 30 -8 59 -25 88 -14 24 -22
45 -19 48 3 3 -8 14 -25 24 -17 10 -31 23 -31 30 0 6 9 46 20 90 18 70 20 97
14 234 -4 85 -4 153 -1 150 3 -3 15 -79 27 -170z m-135 78 c23 -81 24 -173 1
-215 -20 -40 -34 -41 -94 -5 l-47 27 30 3 c85 8 105 25 105 90 0 26 -6 73 -14
105 -18 77 -3 73 19 -5z m-974 -16 c24 -28 24 -39 -2 -53 -28 -15 -47 4 -60
60 -12 54 -2 72 23 40 11 -13 28 -34 39 -47z m855 14 c-7 -29 -45 -78 -55 -71
-4 2 6 33 23 67 20 42 31 57 34 45 2 -10 1 -29 -2 -41z m-1020 26 c-12 -20
-26 -145 -20 -182 9 -56 35 -72 94 -59 25 5 63 21 85 35 l40 25 -45 -42 c-101
-94 -153 -109 -178 -54 -24 52 -8 285 19 285 6 0 8 -4 5 -8z m554 -32 c0 -16
-62 -50 -91 -50 -14 0 -34 7 -45 15 -17 13 -16 14 15 5 35 -10 91 6 105 29 9
14 16 14 16 1z m67 -101 c54 -15 73 -37 80 -88 6 -44 -8 -71 -37 -71 -9 0 -34
-11 -54 -25 l-38 -25 -28 24 c-16 13 -51 29 -78 36 -43 10 -51 16 -59 43 -5
20 -5 44 2 64 8 27 15 33 40 34 16 0 46 6 65 13 37 14 42 14 107 -5z m228 -29
c-3 -5 -14 -10 -24 -10 -37 0 -79 -79 -81 -150 0 -28 -12 -48 -61 -102 -33
-38 -68 -68 -77 -68 -14 0 -13 4 5 18 12 9 23 28 25 41 2 15 20 36 48 56 42
29 45 35 46 78 2 52 36 120 68 135 27 14 59 15 51 2z m-348 -167 c58 -20 72
-39 21 -28 -37 8 -108 42 -108 51 0 7 10 4 87 -23z m203 8 c0 -9 -38 -26 -82
-35 -49 -11 -30 9 25 25 28 9 53 17 55 18 1 0 2 -3 2 -8z m-111 -45 c14 -16 5
-86 -10 -86 -5 0 -17 16 -26 35 -13 28 -14 37 -3 50 16 19 24 19 39 1z m613
-57 c26 -17 48 -34 48 -37 0 -16 -67 -102 -80 -102 -12 -1 -10 -4 4 -15 11 -8
16 -15 10 -15 -5 -1 2 -7 16 -15 17 -10 20 -14 9 -15 -9 0 -33 14 -54 30 -21
17 -33 30 -27 30 6 0 19 13 28 29 9 16 22 28 28 27 6 -2 8 -1 4 1 -5 3 -5 22
-2 44 4 22 2 39 -3 39 -12 0 -51 29 -39 30 5 0 31 -14 58 -31z m-1245 -114
c18 -11 33 -23 33 -26 0 -14 -35 -3 -56 19 -13 12 -28 22 -34 22 -5 0 -10 4
-10 10 0 11 21 3 67 -25z m21 -81 c-26 -24 -38 -47 -43 -77 -11 -68 -23 -77
-21 -15 2 45 8 63 31 90 15 18 31 33 36 33 4 0 11 3 15 8 4 4 10 5 13 2 2 -3
-11 -21 -31 -41z m-254 -28 c41 -17 60 -61 53 -121 -2 -25 0 -48 5 -51 6 -4 8
-31 6 -61 -7 -85 -26 -97 -150 -101 -95 -4 -100 -3 -93 15 34 84 33 221 -3
291 l-22 42 85 0 c50 0 99 -6 119 -14z m1885 5 c11 -7 12 -19 5 -53 -8 -39
-12 -43 -42 -46 -30 -3 -32 -1 -27 20 6 23 4 24 -49 24 -52 0 -68 -7 -47 -20
5 -3 7 -14 4 -24 -4 -15 5 -21 51 -31 72 -16 91 -41 101 -127 8 -80 5 -84 -82
-84 -82 0 -111 12 -128 55 -23 55 -20 67 18 63 24 -2 33 -8 35 -25 3 -22 22
-27 90 -23 10 1 2 43 -11 56 -7 6 -34 17 -62 23 -65 16 -75 26 -75 73 0 53 26
105 58 117 34 12 143 13 161 2z m-524 -35 c24 -20 28 -27 18 -37 -10 -10 -17
-9 -33 9 -27 28 -54 29 -47 2 3 -11 2 -20 -2 -20 -3 0 -12 9 -19 20 -8 13 -8
20 -1 20 5 0 8 4 4 9 -3 5 5 12 17 14 13 2 25 5 28 6 3 0 19 -10 35 -23z
m-1207 -170 l-5 -94 39 6 c37 5 40 3 36 -19 -3 -22 -8 -24 -69 -27 l-66 -3 14
53 c8 29 13 81 11 116 -4 60 -3 62 20 62 l25 0 -5 -94z m230 17 c11 -43 23
-95 27 -115 6 -36 4 -38 -20 -38 -19 0 -25 5 -25 23 0 19 -5 22 -37 21 -28 -1
-38 -6 -44 -23 -5 -12 -17 -21 -30 -21 -13 0 -19 5 -16 13 39 88 57 139 63
175 6 38 9 42 34 42 26 0 29 -4 48 -77z m202 56 c17 -30 9 -64 -15 -64 -13 0
-20 7 -20 20 0 16 -8 21 -35 23 l-35 3 3 -76 c3 -63 6 -76 19 -71 8 3 21 6 29
6 8 0 14 9 14 20 0 13 7 20 20 20 16 0 20 -7 20 -35 0 -43 -23 -57 -88 -53
l-47 3 -3 99 c-2 64 1 103 9 112 7 9 31 14 65 14 44 0 55 -4 64 -21z m82 -36
l3 -58 30 58 c25 49 33 57 58 57 l28 0 -29 -42 -29 -41 29 -70 c15 -38 28 -71
28 -73 0 -2 -11 -4 -25 -4 -21 0 -27 7 -41 56 l-16 56 -19 -28 c-10 -16 -19
-41 -19 -56 0 -21 -5 -28 -20 -28 -19 0 -20 7 -20 115 0 107 1 115 20 115 16
0 19 -8 22 -57z m338 37 c0 -16 -7 -20 -37 -20 -29 0 -34 -3 -25 -12 7 -7 12
-44 12 -95 0 -76 -2 -83 -20 -83 -19 0 -20 7 -20 95 l0 95 -30 0 c-23 0 -30 4
-30 20 0 18 7 20 75 20 68 0 75 -2 75 -20z m70 -49 c0 -37 3 -89 6 -115 6 -42
5 -46 -13 -46 -27 0 -33 24 -33 138 0 85 1 92 20 92 18 0 20 -7 20 -69z m178
57 c7 -7 12 -25 12 -40 0 -21 -5 -28 -20 -28 -13 0 -20 7 -20 20 0 16 -7 20
-38 20 l-37 0 9 -75 c10 -73 11 -75 38 -75 23 0 28 4 28 24 0 19 -4 23 -20 19
-16 -4 -20 0 -20 21 0 24 4 26 39 26 l38 0 6 -52 c3 -29 0 -59 -5 -65 -6 -7
-32 -13 -57 -13 -70 0 -79 12 -87 106 -9 109 0 124 69 124 29 0 58 -5 65 -12z
m182 -10 c0 -21 -4 -23 -51 -19 -45 3 -51 1 -45 -14 3 -9 6 -21 6 -26 0 -5 16
-9 35 -9 24 0 35 -5 35 -15 0 -27 -5 -30 -37 -27 -34 4 -40 -7 -27 -42 5 -12
15 -15 46 -10 29 5 42 3 49 -7 20 -32 10 -39 -60 -39 l-68 0 -7 46 c-3 26 -6
78 -6 115 l0 69 65 0 c61 0 65 -1 65 -22z m168 10 c15 -15 16 -102 0 -127 -9
-15 -6 -25 17 -55 l27 -36 -24 0 c-18 0 -33 11 -52 40 -30 45 -62 55 -52 16 3
-13 9 -31 12 -40 5 -12 0 -16 -20 -16 -14 0 -26 6 -26 13 0 6 -5 43 -10 81 -6
38 -8 84 -4 102 6 34 7 34 63 34 31 0 62 -5 69 -12z m-1368 -88 c0 -36 -4 -50
-14 -50 -15 0 -43 57 -33 67 4 3 11 -5 16 -18 9 -23 10 -23 10 -2 1 23 11 53
17 53 2 0 4 -22 4 -50z m570 -13 c0 -24 -3 -28 -10 -17 -13 20 -13 63 0 55 6
-3 10 -21 10 -38z m50 -16 c0 -26 5 -62 11 -80 14 -40 4 -54 -12 -15 -17 43
-25 159 -10 150 6 -4 11 -29 11 -55z m146 -35 c-2 -68 -8 -93 -29 -131 -21
-37 -24 -51 -16 -67 6 -10 16 -18 22 -16 21 7 48 71 43 101 -3 15 -1 27 4 27
18 0 11 -74 -10 -107 -16 -27 -17 -33 -5 -33 16 0 45 49 45 75 0 9 5 13 10 10
7 -4 9 2 5 18 -5 19 -2 25 14 30 23 6 29 -5 37 -79 9 -71 -11 -72 -21 -1 -6
34 -10 44 -13 29 -2 -13 3 -46 12 -72 9 -27 16 -55 16 -62 -1 -22 -60 -109
-70 -103 -6 3 -7 -1 -4 -9 4 -10 1 -16 -8 -16 -8 0 -25 -11 -38 -25 -12 -13
-25 -23 -29 -22 -3 1 -31 -16 -62 -38 -54 -38 -56 -41 -51 -77 7 -54 -4 -47
-22 15 -16 55 -44 83 -138 135 -31 18 -36 19 -31 5 5 -13 0 -12 -25 6 -46 32
-59 55 -93 159 -16 52 -36 101 -44 109 -16 16 -20 43 -7 43 5 0 14 -10 20 -22
l11 -23 0 23 c2 44 21 21 21 -25 0 -53 18 -129 44 -183 9 -19 14 -26 10 -15
-28 94 -27 262 3 251 8 -3 18 -6 22 -6 4 0 5 -15 3 -34 -2 -19 1 -43 7 -53 9
-15 10 -12 6 17 l-5 35 13 -36 c13 -39 34 -69 48 -69 5 0 0 15 -11 33 -23 40
-37 107 -21 107 6 0 11 -11 11 -25 0 -32 24 -90 41 -100 8 -6 18 -1 27 13 17
25 34 30 25 6 -5 -15 5 -15 68 2 8 2 36 0 62 -5 35 -6 47 -5 44 3 -2 7 -36 12
-85 14 -80 3 -83 4 -122 41 -29 27 -40 46 -40 67 0 27 2 27 20 -14 24 -52 64
-72 147 -72 44 0 62 5 80 22 33 31 29 43 -6 17 -24 -18 -39 -21 -88 -17 -33 2
-70 12 -86 22 -41 27 -25 32 26 7 50 -24 92 -27 127 -6 14 8 32 17 40 21 26
13 30 27 30 107 0 43 4 77 10 77 5 0 8 -34 6 -84z m-638 -100 c18 -24 59 -72
91 -107 73 -80 94 -122 116 -228 9 -46 23 -101 31 -122 7 -22 10 -39 6 -39 -9
0 -112 183 -112 198 0 7 -7 12 -15 12 -8 0 -23 13 -34 30 -10 16 -20 28 -23
25 -6 -6 -48 78 -48 95 0 5 -4 10 -9 10 -6 0 -21 18 -34 40 -13 22 -26 38 -29
35 -3 -4 -10 8 -16 24 -11 31 -4 46 14 33 5 -4 20 -31 34 -61 l25 -55 6 35 c4
25 0 42 -16 64 -32 44 -37 55 -28 55 4 0 23 -20 41 -44z m904 -39 c-16 -23
-40 -48 -53 -57 -19 -12 -16 -5 12 30 20 25 42 56 49 70 9 16 15 20 18 12 2
-8 -9 -32 -26 -55z m-803 -8 c24 -27 41 -49 37 -49 -10 0 -96 81 -96 91 0 17
16 6 59 -42z m690 -99 c-29 -93 -55 -147 -66 -137 -2 3 2 16 11 29 16 24 65
204 67 243 0 14 3 11 10 -10 7 -23 2 -51 -22 -125z m195 138 c-4 -7 -36 -48
-70 -90 -35 -43 -68 -87 -75 -100 -12 -22 -50 -180 -44 -186 2 -3 51 112 69
163 7 19 8 19 17 2 8 -14 -3 -41 -49 -125 -32 -59 -62 -116 -66 -127 -16 -40
-18 5 -2 53 9 26 23 83 31 127 9 44 23 91 32 105 29 45 148 190 156 190 5 0 5
-6 1 -12z m56 0 c0 6 4 12 9 12 5 0 4 -16 -2 -36 -8 -26 -13 -31 -17 -20 -4
11 -9 3 -17 -26 -13 -49 -62 -121 -93 -138 -18 -10 -20 -8 -19 27 0 21 3 32 6
24 4 -10 9 -8 19 10 14 24 14 24 8 -6 -12 -52 7 -20 32 57 17 51 23 62 20 36
-3 -21 -3 -38 -1 -38 2 0 12 25 21 55 12 36 21 51 26 43 6 -10 8 -10 8 0z
m-430 -385 c0 -10 -11 -23 -25 -30 -31 -14 -32 -6 -3 24 26 28 28 28 28 6z
m-250 -9 c24 -5 38 -19 36 -39 l-1 -24 -23 22 c-29 27 -51 64 -30 51 7 -5 15
-9 18 -10z"/>
<path d="M1160 1946 c0 -52 43 -85 95 -72 36 9 22 39 -15 31 -24 -5 -30 -2
-42 21 -15 31 -38 43 -38 20z"/>
<path d="M1125 1928 c4 -13 16 -32 26 -43 19 -20 19 -19 2 22 -19 45 -39 60
-28 21z"/>
<path d="M1210 1745 c-33 -35 -18 -43 20 -11 40 33 50 33 92 -1 21 -18 28 -21
18 -8 -40 53 -92 61 -130 20z"/>
<path d="M1185 1691 c-22 -10 -64 -43 -92 -74 -51 -54 -66 -76 -41 -61 8 5 9
2 5 -11 -6 -14 -3 -16 15 -11 13 3 26 6 31 6 9 0 10 50 0 50 -3 0 -15 -7 -25
-17 -10 -9 -18 -11 -18 -5 0 6 12 19 26 29 14 10 37 30 51 46 15 15 36 27 48
27 21 0 83 -55 73 -65 -2 -3 -15 6 -28 20 -14 15 -35 25 -51 25 -34 0 -44 -13
-24 -30 8 -7 12 -16 10 -21 -3 -4 14 -29 38 -54 34 -35 51 -45 75 -45 18 0 32
-4 32 -10 0 -24 -92 1 -119 33 -16 20 -61 23 -61 5 1 -35 47 -63 166 -102 43
-14 80 -26 81 -26 1 0 0 7 -4 15 -3 9 -19 23 -35 31 -21 11 -27 20 -23 34 4
14 -2 24 -22 36 -37 23 -73 56 -73 66 0 4 8 8 19 8 10 0 24 7 32 16 12 14 14
14 26 -2 7 -10 13 -28 13 -41 0 -13 6 -36 14 -51 15 -28 107 -119 141 -138 51
-29 -50 -60 -155 -47 -40 5 -50 10 -50 24 0 16 8 19 49 19 28 0 52 4 55 9 6 9
-113 41 -148 41 -23 0 -20 -16 6 -34 35 -25 14 -29 -26 -5 -26 15 -35 17 -31
7 4 -9 0 -15 -10 -15 -9 0 -14 6 -11 14 4 11 0 10 -22 -1 -41 -21 -94 -78 -83
-89 11 -11 34 1 26 14 -4 5 1 9 9 9 9 0 26 10 39 23 28 28 38 28 59 1 10 -12
39 -29 65 -38 61 -21 198 -21 247 -1 31 13 36 20 36 50 0 29 -5 36 -35 50 -57
28 -140 131 -155 193 -22 95 -72 127 -145 93z"/>
<path d="M1894 1595 c-18 -28 -14 -41 11 -32 8 4 15 18 15 32 0 32 -5 32 -26
0z"/>
<path d="M1130 1575 c0 -18 5 -25 20 -25 23 0 25 8 6 33 -18 24 -26 21 -26 -8z"/>
<path d="M996 1529 l-29 -18 26 -7 c15 -3 40 -3 55 1 15 4 37 7 50 8 12 1 22
6 22 11 0 7 -32 4 -100 -11 -24 -5 -24 -5 -5 10 29 23 15 27 -19 6z"/>
<path d="M1912 1520 c-17 -27 -16 -30 13 -30 26 0 29 7 19 34 -8 21 -17 20
-32 -4z"/>
<path d="M1960 1513 c1 -17 29 -43 61 -57 25 -11 29 -15 14 -16 -18 -1 -17 -2
4 -11 13 -5 26 -7 29 -4 3 3 1 5 -5 5 -6 0 -9 8 -7 18 3 10 -3 21 -14 27 -11
6 -34 18 -51 28 -17 10 -31 14 -31 10z"/>
<path d="M1142 1453 c-9 -4 -10 -9 -2 -18 8 -9 6 -14 -5 -18 -8 -4 -14 -1 -12
5 1 7 -15 12 -40 13 -24 0 -37 -2 -31 -6 9 -6 7 -13 -6 -28 -22 -24 -12 -27
24 -6 14 8 30 14 35 14 6 0 -16 -13 -47 -29 -42 -22 -56 -34 -51 -46 5 -13 11
-10 37 14 36 35 106 72 135 72 31 0 35 19 6 30 -14 6 -27 10 -28 9 -1 0 -8 -3
-15 -6z"/>
<path d="M1947 1443 c-13 -12 -7 -23 18 -35 13 -6 23 -14 20 -17 -2 -4 5 -7
16 -7 16 0 14 5 -13 33 -36 37 -33 35 -41 26z"/>
<path d="M991 1408 c-16 -16 -18 -25 -9 -35 9 -11 16 -9 40 14 20 19 25 29 16
35 -19 12 -25 10 -47 -14z"/>
<path d="M1994 1305 c17 -13 33 -22 38 -19 17 10 7 21 -29 32 l-38 11 29 -24z"/>
<path d="M1472 1282 c-21 -14 9 -22 81 -22 46 0 58 3 49 12 -14 14 -112 22
-130 10z"/>
<path d="M1432 1250 c7 -23 36 -36 50 -22 14 14 11 18 -26 28 -21 5 -28 4 -24
-6z"/>
<path d="M1832 1948 c-18 -5 -30 -13 -26 -19 4 -6 11 -6 20 2 11 9 14 8 14 -5
0 -21 -26 -32 -43 -18 -8 7 -18 8 -27 1 -13 -8 -12 -12 4 -24 42 -32 116 -4
116 44 0 24 -17 30 -58 19z"/>
<path d="M1904 1924 c-4 -16 -13 -36 -21 -45 -12 -14 -12 -17 1 -22 9 -4 15
-3 14 1 -1 4 4 24 11 45 7 21 11 41 7 44 -3 3 -8 -8 -12 -23z"/>
<path d="M568 1178 c12 -14 22 -32 22 -41 0 -13 9 -17 45 -17 43 0 45 1 45 30
0 34 -3 36 -80 45 l-55 6 23 -23z"/>
<path d="M595 1048 c-2 -7 -5 -26 -8 -41 -4 -28 -4 -28 47 -25 l51 3 3 38 3
37 -46 0 c-28 0 -47 -5 -50 -12z"/>
<path d="M1012 1045 c-15 -52 -15 -51 8 -51 21 0 24 19 11 66 -7 24 -8 23 -19
-15z"/>
<path d="M2189 1086 c7 -8 11 -23 9 -33 -2 -14 4 -19 30 -21 31 -3 32 -2 32
32 0 35 -1 36 -41 36 -35 0 -40 -2 -30 -14z"/>
<path d="M1281 836 c-6 -16 -10 -34 -8 -40 3 -6 10 2 16 18 6 16 10 34 8 40
-3 6 -10 -2 -16 -18z"/>
<path d="M1300 777 c0 -19 42 -67 59 -67 5 0 38 9 73 20 76 24 155 26 205 5
41 -17 93 -22 112 -11 7 5 9 16 5 28 -4 15 -3 18 6 13 9 -5 11 -4 6 3 -10 16
-14 15 -27 -9 -9 -17 -8 -20 3 -14 7 5 10 4 5 0 -13 -15 -50 -14 -101 2 -65
21 -138 20 -207 -2 -68 -21 -103 -15 -123 23 -11 20 -15 22 -16 9z"/>
<path d="M1281 728 c0 -27 4 -48 9 -48 6 0 10 -12 10 -27 0 -16 5 -35 10 -43
8 -12 10 -12 10 -1 0 11 4 11 18 -2 10 -10 23 -17 29 -17 6 0 16 -7 23 -15 15
-18 34 -20 25 -2 -4 6 2 2 12 -10 10 -12 39 -37 65 -57 l47 -35 76 59 c41 33
75 65 75 71 0 5 5 7 10 4 6 -3 13 1 16 10 5 12 9 13 14 4 6 -8 12 -4 20 12 7
13 16 26 20 29 13 9 19 55 10 70 -5 8 -10 10 -10 4 0 -6 -14 -17 -31 -24 -27
-12 -39 -11 -88 6 -69 24 -149 24 -220 0 -29 -10 -64 -18 -78 -18 -29 0 -60
26 -66 56 -2 11 -5 0 -6 -26z m224 -48 c-4 -14 -2 -20 9 -20 8 0 18 5 21 10 3
6 1 10 -5 10 -6 0 -8 5 -5 10 13 21 34 10 33 -18 -1 -26 -4 -28 -39 -28 -31 0
-39 3 -39 18 0 10 -5 18 -11 18 -6 0 -8 -8 -5 -18 5 -14 -2 -20 -33 -28 -33
-9 -41 -8 -46 3 -12 32 -4 40 48 50 78 15 79 15 72 -7z m105 -5 c0 -8 4 -15
10 -15 5 0 6 8 3 17 -5 13 -3 15 13 9 10 -4 26 -9 34 -11 16 -3 15 -34 -2 -50
-7 -7 -9 -3 -5 13 3 12 1 22 -4 22 -5 0 -9 -7 -9 -16 0 -12 -5 -14 -17 -9 -10
4 -28 7 -40 6 -18 -1 -23 5 -23 24 0 18 5 25 20 25 11 0 20 -7 20 -15z m-54
-65 c15 0 24 -6 24 -15 0 -29 -51 -32 -90 -5 -13 9 -13 11 0 20 8 5 21 8 28 5
8 -3 25 -5 38 -5z m-35 -75 c34 -11 66 3 79 35 7 17 15 28 18 26 10 -11 -20
-64 -43 -76 -19 -10 -30 -10 -55 0 -41 17 -80 48 -80 65 0 7 13 1 31 -15 16
-16 39 -32 50 -35z"/>
<path d="M1064 798 c10 -54 37 -141 42 -135 2 2 0 16 -6 31 -5 15 -10 39 -9
54 0 18 6 7 18 -33 15 -53 46 -115 57 -115 2 0 -3 16 -11 36 -29 69 -14 48 40
-56 46 -88 54 -98 49 -65 -4 22 -15 68 -26 102 -17 58 -48 99 -156 213 -3 3
-2 -12 2 -32z"/>
</g>
</svg>
