 <svg  version="1.0" xmlns="http://www.w3.org/2000/svg"  width="300.000000pt" height="300.000000pt" viewBox="0 0 300.000000 300.000000"  preserveAspectRatio="xMidYMid meet">  <g transform="translate(0.000000,300.000000) scale(0.100000,-0.100000)" fill="#f7f7f3" stroke="none"> <path d="M877 2635 c-15 -8 -34 -21 -43 -30 -8 -8 -19 -15 -24 -15 -22 0 -50 -88 -50 -158 0 -81 35 -184 73 -213 36 -29 29 -68 -25 -127 -79 -88 -143 -245 -108 -267 7 -4 7 -13 0 -26 -6 -10 -10 -25 -9 -32 2 -6 -3 -37 -10 -67 -8 -38 -10 -83 -4 -145 7 -78 10 -90 26 -87 14 2 17 -5 17 -52 0 -53 15 -106 30 -106 4 0 10 -19 14 -41 8 -52 22 -79 41 -79 23 0 18 -14 -10 -27 -23 -10 -25 -9 -35 26 -19 73 -72 101 -189 101 -65 0 -81 -3 -96 -20 -17 -19 -17 -22 -1 -57 23 -52 34 -134 26 -185 -4 -24 -11 -62 -15 -85 -6 -36 -5 -42 15 -53 35 -18 203 -10 227 12 18 16 19 16 31 -2 7 -11 15 -19 20 -19 4 1 41 1 84 0 75 -1 76 -1 87 -31 5 -17 30 -55 56 -86 25 -31 45 -61 45 -68 0 -16 76 -118 95 -129 9 -4 27 -31 41 -60 49 -95 93 -157 108 -151 23 9 26 30 11 81 -8 27 -15 53 -15 58 0 11 36 -30 81 -93 l31 -44 28 27 c16 15 32 39 35 54 7 25 8 25 27 -19 10 -24 24 -50 30 -57 16 -20 38 3 38 39 0 31 22 47 43 30 7 -6 23 -8 36 -5 20 5 22 3 17 -14 -4 -12 -1 -25 8 -32 16 -13 34 5 100 102 22 31 41 55 44 53 2 -3 -3 -27 -13 -55 -21 -64 -17 -106 10 -106 15 0 35 29 86 123 42 79 75 128 90 136 31 15 104 125 139 208 19 47 35 64 44 49 10 -16 52 -13 66 4 11 13 15 13 33 0 27 -19 61 -19 77 0 11 13 15 13 33 0 15 -10 47 -15 102 -15 73 0 84 2 104 24 21 22 22 31 16 85 -4 33 -15 76 -24 94 -16 32 -16 35 -1 45 10 6 22 31 29 56 19 79 -9 106 -109 106 -94 0 -152 -41 -166 -117 -6 -30 -8 -33 -21 -21 -12 13 -12 23 3 79 10 35 23 71 31 80 7 9 13 39 13 70 0 47 3 56 22 64 16 7 22 17 20 35 -1 14 -6 68 -10 120 -5 53 -12 101 -16 109 -5 7 -1 17 10 26 17 12 17 16 4 39 -10 20 -11 29 -2 38 7 7 12 20 12 30 0 29 -63 146 -125 233 -64 89 -73 105 -55 105 8 0 10 8 7 21 -3 11 3 35 13 52 10 18 26 59 35 92 10 33 24 73 32 89 19 35 12 99 -15 135 -10 14 -37 39 -60 55 -38 27 -44 28 -79 18 -21 -6 -63 -33 -93 -58 -30 -26 -74 -55 -97 -66 -37 -16 -44 -17 -70 -3 -154 80 -255 110 -347 102 -86 -7 -237 -45 -261 -66 -24 -21 -90 -41 -137 -41 -37 0 -107 40 -148 85 -21 22 -70 55 -82 55 -2 0 -15 -7 -31 -15z m61 -29 c15 -8 37 -27 49 -44 26 -35 115 -82 155 -82 15 0 49 8 75 19 26 10 66 19 88 19 37 1 39 0 21 -13 -22 -17 -50 -20 -41 -5 9 15 -8 12 -61 -11 -26 -12 -64 -22 -84 -22 -48 0 -115 36 -167 89 -50 52 -78 56 -115 17 -50 -56 -58 -75 -58 -146 0 -96 37 -177 82 -177 10 0 18 -4 18 -10 0 -13 -4 -13 -45 5 -20 8 -35 18 -34 22 1 4 -6 26 -17 48 -25 55 -26 188 -1 230 10 17 16 22 13 12 -3 -9 12 1 33 23 42 44 50 46 89 26z m1261 5 c16 -10 30 -77 31 -149 0 -36 -3 -51 -11 -46 -8 4 -9 -1 -4 -17 4 -17 3 -20 -3 -10 -8 10 -18 2 -48 -37 -22 -28 -43 -51 -48 -51 -5 -1 -3 6 4 14 15 18 7 19 -23 5 -18 -9 -17 -7 3 7 105 75 128 119 109 212 -11 60 -12 61 -45 61 -25 0 -49 -13 -100 -54 -63 -51 -118 -77 -160 -75 -11 0 7 8 38 18 34 11 78 36 110 63 80 68 112 81 147 59z m-465 -52 c65 -23 84 -39 54 -47 -11 -3 -10 -2 0 6 14 10 -96 44 -183 57 -34 6 -216 -18 -315 -41 -14 -3 -21 -2 -17 3 5 4 56 18 115 30 137 28 249 25 346 -8z m537 -23 c10 -22 18 -54 18 -71 -1 -33 -3 -29 -19 34 -9 33 -14 41 -21 30 -7 -11 -9 -9 -9 8 0 12 -3 29 -7 39 -14 36 19 1 38 -40z m-1330 -12 c3 -23 17 -58 31 -77 46 -59 128 -77 114 -24 -5 21 -3 22 43 19 35 -3 60 2 92 18 l43 22 -27 -32 c-35 -41 -92 -80 -134 -92 -67 -18 -195 69 -210 143 -7 38 -23 48 -23 14 0 -67 69 -144 152 -170 37 -12 39 -14 15 -14 -74 -2 -158 77 -180 170 -8 32 25 72 56 67 17 -2 23 -12 28 -44z m1245 10 c6 -31 2 -40 -33 -82 -27 -33 -54 -52 -85 -62 -25 -9 -52 -21 -60 -28 -11 -9 -31 -3 -93 28 -43 22 -83 44 -89 50 -11 11 -6 11 96 14 53 1 55 0 41 -16 -8 -10 -13 -24 -10 -33 22 -56 167 60 167 134 0 20 12 29 42 30 12 1 19 -10 24 -35z m-83 -1 c-18 -49 -99 -123 -134 -123 -7 0 8 13 34 29 25 17 58 48 73 70 29 44 37 51 27 24z m-1125 -27 c12 -19 40 -49 63 -65 44 -32 38 -44 -8 -14 -37 25 -99 113 -79 113 2 0 13 -16 24 -34z m661 22 c28 -6 51 -16 51 -21 0 -5 -8 -6 -17 -1 -29 12 -234 16 -282 6 -24 -6 -39 -7 -35 -2 30 28 194 39 283 18z m-803 -46 c-11 -74 23 -145 87 -179 38 -19 30 -25 -18 -12 -38 11 -95 57 -95 78 0 6 16 -6 36 -27 l36 -37 -27 37 c-30 41 -40 91 -31 142 9 48 20 46 12 -2z m909 28 c3 -5 -1 -10 -9 -10 -8 0 -18 5 -21 10 -3 6 1 10 9 10 8 0 18 -4 21 -10z m123 -10 c13 0 21 -4 18 -9 -6 -9 -95 -12 -110 -3 -14 8 26 22 49 17 11 -3 30 -5 43 -5z m-173 -22 c66 -14 92 -33 116 -80 11 -22 23 -37 27 -34 3 4 0 12 -6 18 -26 26 -10 30 16 5 15 -15 32 -27 38 -27 5 0 2 4 -6 10 -8 5 -12 11 -9 14 7 7 172 -106 177 -122 2 -8 -28 9 -67 38 -40 28 -77 48 -83 44 -7 -5 -5 -12 8 -21 77 -56 115 -119 84 -138 -10 -6 -15 13 -12 47 1 9 -29 41 -68 73 -39 31 -70 53 -70 50 0 -4 -17 7 -38 24 -59 46 -137 74 -204 72 -80 -2 -95 -2 -158 0 -68 3 -150 -32 -205 -86 -28 -29 -36 -33 -30 -16 3 11 3 21 -1 21 -4 0 -40 -30 -80 -66 -53 -47 -77 -76 -85 -104 -8 -27 -17 -38 -29 -37 -14 1 -16 6 -9 24 17 45 182 198 204 190 6 -3 19 7 28 22 25 42 52 62 104 75 60 16 291 19 358 4z m501 -25 c-35 -67 -138 -134 -174 -114 -15 9 -13 10 8 11 47 1 109 37 142 84 36 52 45 59 24 19z m61 -25 c-8 -77 -34 -153 -63 -188 -20 -23 -22 -30 -10 -30 23 0 20 -17 -4 -23 -15 -4 -18 -10 -13 -24 6 -16 5 -16 -10 -4 -22 17 -22 31 1 32 16 0 16 1 0 11 -14 11 -14 14 8 31 22 17 64 85 64 103 0 4 -12 -4 -27 -18 -45 -43 -113 -63 -113 -33 0 11 7 13 28 9 52 -11 132 83 132 156 0 16 3 30 6 30 4 0 4 -24 1 -52z m-817 -7 c-14 -5 -43 -18 -64 -29 -49 -26 -61 -19 -23 14 21 18 39 24 70 23 35 -1 38 -2 17 -8z m230 -4 c14 -7 27 -21 29 -32 3 -17 1 -18 -13 -6 -9 7 -16 10 -16 6 0 -4 -7 -2 -15 5 -8 7 -32 18 -52 26 l-38 13 40 0 c22 1 51 -5 65 -12z m-75 -55 c-22 -1 -50 -8 -63 -14 -17 -9 -25 -9 -34 0 -7 7 -31 12 -55 12 -53 0 -54 10 -5 32 58 27 101 26 152 -2 l45 -25 -40 -3z m-635 -35 l50 -25 -40 -36 c-45 -40 -50 -42 -50 -21 0 8 6 15 14 15 7 0 20 7 27 16 11 14 6 22 -39 61 -29 25 -52 50 -52 55 0 6 9 -1 20 -15 11 -14 42 -36 70 -50z m385 4 c-3 -8 2 -24 10 -37 15 -23 15 -24 -14 -24 -35 0 -68 -40 -96 -115 -10 -27 -19 -51 -21 -53 -3 -4 -57 29 -65 40 -3 5 -1 45 5 91 10 75 13 82 34 83 13 1 33 10 45 21 41 37 59 43 84 24 12 -9 20 -22 18 -30z m444 20 c45 -30 67 -74 90 -174 8 -35 7 -38 -21 -53 -36 -18 -41 -13 -59 51 -16 58 -24 70 -48 68 -12 -2 -24 4 -27 12 -4 8 -17 15 -30 15 -22 0 -23 2 -14 21 6 11 10 28 8 37 -3 17 28 51 47 52 6 0 30 -13 54 -29z m-705 -39 c-21 -16 -46 -37 -54 -47 -8 -10 -33 -31 -54 -47 -21 -15 -34 -28 -27 -28 6 0 -24 -35 -66 -77 -47 -47 -91 -102 -111 -139 -17 -34 -32 -64 -32 -68 0 -6 143 142 179 184 11 14 20 21 21 17 0 -7 -134 -159 -217 -247 l-23 -25 24 64 c39 97 73 150 144 220 l65 64 -39 -7 c-26 -5 -34 -4 -25 3 13 8 13 12 0 27 -13 17 -13 17 10 2 22 -16 27 -16 54 -1 17 8 54 37 81 63 51 47 83 69 100 70 5 0 -9 -13 -30 -28z m417 -22 c4 -19 6 -36 5 -37 -4 -4 -110 38 -123 49 -29 24 -13 33 49 28 62 -5 62 -5 69 -40z m157 28 c-2 -16 -18 -28 -62 -45 -32 -13 -60 -22 -63 -19 -2 2 -1 20 2 39 7 35 8 36 59 40 28 2 55 4 59 5 5 1 7 -8 5 -20z m238 -51 c48 -65 66 -105 71 -166 l5 -56 -48 3 c-47 3 -52 1 -128 -62 -85 -71 -114 -85 -72 -35 33 39 40 69 31 127 -5 26 -7 69 -6 97 2 60 21 87 21 31 0 -21 7 -59 17 -85 15 -45 15 -48 -6 -95 -12 -27 -20 -50 -18 -52 1 -2 13 14 27 34 39 60 71 91 102 97 28 7 29 9 23 48 -3 23 -19 68 -34 100 -15 31 -25 57 -22 57 3 0 20 -20 37 -43z m-749 -14 c-9 -16 -17 -56 -18 -88 -3 -58 -2 -60 23 -63 32 -4 71 -41 105 -100 14 -23 27 -41 29 -40 2 2 -5 30 -15 63 -14 44 -16 67 -9 90 5 16 13 45 18 63 16 64 20 44 17 -84 -2 -104 1 -135 15 -161 23 -45 10 -40 -34 13 -68 82 -95 99 -156 99 l-54 0 6 58 c5 53 27 108 64 165 20 31 27 20 9 -15z m965 -14 c12 -3 15 -8 9 -18 -7 -11 -13 -10 -35 4 -14 9 -23 21 -20 27 4 5 10 5 17 0 7 -6 20 -11 29 -13z m-727 -8 c120 -30 125 -32 125 -52 0 -17 -5 -19 -42 -13 -47 7 -99 32 -138 64 -21 18 -22 21 -5 16 11 -3 38 -9 60 -15z m325 11 c0 -11 -39 -46 -65 -60 -11 -5 -40 -12 -65 -13 -36 -3 -45 0 -48 13 -2 12 8 20 40 28 24 6 61 17 83 25 49 16 55 17 55 7z m319 -62 c1 -13 0 -13 -9 0 -5 8 -9 24 -9 35 0 20 0 20 9 0 5 -11 9 -27 9 -35z m140 -35 c30 -4 214 -295 197 -312 -3 -3 -21 4 -41 15 -19 12 -35 19 -35 16 0 -9 34 -59 59 -86 13 -16 19 -28 13 -28 -18 0 -122 103 -122 120 0 8 12 -3 26 -23 35 -53 42 -39 9 17 -31 52 -27 56 19 21 60 -45 46 -26 -48 68 -90 89 -156 169 -156 190 0 6 14 -9 31 -33 17 -24 70 -82 116 -129 68 -68 81 -79 68 -51 -50 99 -117 177 -207 240 -27 18 -48 38 -48 43 0 5 23 -8 52 -28 28 -21 58 -38 67 -40z m-771 3 c11 -5 42 -77 42 -99 0 -11 -9 -38 -20 -60 -12 -22 -18 -48 -15 -58 4 -14 -1 -20 -22 -24 -15 -3 -32 -1 -37 3 -11 11 8 79 35 123 23 38 24 66 5 93 -13 16 -18 17 -35 6 -19 -11 -21 -10 -21 12 0 13 -3 32 -6 41 -5 12 3 10 30 -9 20 -13 40 -26 44 -28z m320 -15 l-3 -27 -18 28 c-18 27 -18 28 0 48 l18 20 3 -21 c2 -11 2 -33 0 -48z m339 0 c-1 -21 2 -49 7 -63 8 -22 7 -23 -7 -12 -12 10 -21 11 -36 3 -30 -17 -31 -15 -31 45 0 50 2 55 19 49 11 -3 22 -1 26 5 13 21 23 9 22 -27z m-1013 -27 c-4 -25 -2 -52 5 -65 7 -13 8 -21 2 -21 -15 0 -31 34 -31 64 0 14 -4 28 -10 31 -15 9 -12 25 4 19 8 -3 17 -1 21 5 12 20 15 11 9 -33z m434 21 c25 -19 14 -90 -23 -147 -40 -64 -46 -60 -10 8 30 57 32 91 5 125 -11 14 -20 28 -20 31 0 7 31 -4 48 -17z m64 -34 c-7 -58 48 -163 85 -163 11 0 10 4 -3 17 -27 27 -54 94 -54 135 0 27 6 41 22 52 34 24 38 19 17 -21 -24 -47 -24 -67 1 -122 26 -56 36 -47 20 17 -8 28 -10 61 -6 78 7 28 8 27 26 -26 39 -118 47 -149 41 -159 -4 -7 -27 -3 -63 11 -59 21 -94 19 -85 -6 3 -8 -1 -17 -9 -20 -27 -10 -44 -6 -44 10 0 9 -9 18 -19 21 -18 5 -17 9 16 70 30 55 35 71 30 107 -7 47 -1 61 17 44 6 -6 10 -26 8 -45z m-588 -27 c-29 -60 -37 -93 -45 -172 -11 -123 -19 -164 -30 -164 -5 0 -9 51 -9 113 0 62 -4 117 -10 123 -6 6 15 39 57 92 37 45 68 82 69 82 2 0 -13 -33 -32 -74z m747 10 c20 -33 26 -111 9 -121 -6 -4 -10 7 -10 25 0 17 -7 47 -15 67 -8 19 -14 50 -14 67 1 19 3 24 6 12 3 -10 14 -33 24 -50z m379 56 c0 -4 25 -40 55 -81 43 -57 53 -76 44 -87 -7 -9 -9 -50 -4 -135 7 -101 5 -121 -6 -117 -10 3 -17 41 -25 141 -10 123 -15 143 -47 212 -20 41 -32 75 -27 75 6 0 10 -3 10 -8z m-720 -79 c-11 -14 -23 -44 -27 -66 -5 -35 -7 -38 -14 -19 -8 21 2 62 32 125 13 28 13 28 21 7 6 -16 2 -29 -12 -47z m-355 -20 c6 -25 33 -43 73 -48 116 -16 159 -32 203 -76 10 -10 26 -19 34 -19 10 0 15 -10 15 -34 0 -25 6 -38 25 -50 32 -21 63 -20 118 4 25 11 53 17 63 13 11 -4 15 -3 11 5 -5 7 3 8 27 1 22 -6 43 -6 60 1 16 6 26 6 26 0 0 -14 -46 -23 -83 -16 -52 9 -8 -12 62 -29 46 -12 65 -13 82 -5 11 7 33 9 47 6 20 -5 23 -4 12 4 -8 5 -10 10 -5 9 16 0 53 -23 56 -34 5 -25 48 -69 92 -96 29 -18 45 -34 41 -41 -4 -7 -3 -8 4 -4 6 4 24 -2 40 -14 15 -11 44 -23 64 -26 36 -6 37 -5 63 46 14 29 28 50 30 48 2 -1 -7 -34 -20 -73 -23 -68 -25 -70 -59 -73 -30 -3 -41 2 -66 29 -16 18 -27 36 -24 41 3 5 2 7 -3 6 -15 -4 -53 13 -48 22 5 9 -44 44 -52 37 -2 -3 5 -10 16 -17 12 -6 21 -17 21 -25 0 -8 4 -15 8 -15 4 0 8 -12 7 -27 0 -28 27 -49 74 -56 12 -2 27 -12 35 -23 12 -18 38 -84 32 -84 -1 0 -31 11 -65 26 -35 14 -66 23 -68 20 -3 -3 6 -8 21 -12 14 -3 24 -10 21 -14 -2 -4 4 -15 15 -25 11 -10 20 -23 20 -29 0 -5 -17 7 -38 27 -33 32 -41 36 -51 24 -9 -12 -6 -17 19 -27 17 -7 29 -15 26 -17 -2 -2 -17 2 -33 10 -23 12 -30 13 -40 1 -11 -11 -8 -20 12 -50 27 -39 28 -91 4 -121 -8 -9 -8 -13 -1 -13 6 0 18 -3 28 -7 11 -4 15 -3 11 4 -9 14 45 25 58 12 7 -7 3 -8 -10 -3 -11 4 -17 4 -14 0 4 -4 16 -9 29 -11 12 -2 29 -10 37 -16 12 -11 12 -14 -3 -22 -12 -7 -20 -6 -28 5 -6 8 -22 20 -35 27 -23 13 -23 12 -19 -13 6 -32 2 -33 -23 -3 -14 16 -18 18 -19 7 0 -9 6 -22 13 -30 10 -12 9 -12 -3 -4 -8 6 -28 9 -43 8 -21 -2 -26 0 -19 9 5 7 18 37 30 67 17 46 18 59 7 73 -11 15 -13 12 -19 -25 -8 -54 -36 -128 -47 -128 -12 0 -11 8 6 55 25 70 17 97 -9 32 -27 -64 -55 -111 -63 -104 -2 3 0 14 5 24 5 10 13 37 17 61 l7 42 -37 0 c-32 0 -36 -3 -30 -17 4 -10 11 -35 15 -55 7 -38 7 -38 -26 -38 l-33 0 2 53 2 52 -34 3 c-29 3 -33 1 -26 -15 4 -10 9 -35 12 -55 l6 -37 -79 -3 -79 -3 -6 -40 c-7 -43 -11 -39 -13 10 -1 28 -4 30 -44 33 -24 2 -50 -2 -58 -9 -26 -21 -31 35 -9 94 6 14 1 17 -30 17 l-38 0 6 -49 c5 -46 4 -49 -18 -53 -29 -6 -41 26 -25 67 15 39 13 45 -15 45 -21 0 -25 -5 -25 -31 0 -17 5 -39 11 -51 13 -24 1 -40 -12 -15 -6 9 -15 15 -20 12 -5 -4 -12 7 -15 24 -4 17 -10 31 -15 31 -5 0 -9 11 -9 25 0 14 -4 25 -9 25 -10 0 -1 -47 18 -93 6 -16 11 -29 11 -31 0 -1 -10 -2 -23 -2 -26 0 -28 8 -30 104 -1 34 -4 58 -5 52 -2 -6 -9 -7 -15 -3 -6 4 -8 0 -4 -10 6 -16 -11 -20 -23 -6 -3 3 -16 -8 -30 -25 -14 -16 -20 -27 -14 -23 7 4 24 1 39 -7 23 -12 24 -15 8 -19 -16 -4 -16 -6 4 -12 l22 -7 -22 -38 c-12 -21 -25 -36 -29 -33 -5 2 2 18 14 36 12 17 17 27 10 23 -7 -4 -12 -2 -12 3 0 18 -19 13 -44 -11 -22 -21 -46 -34 -46 -24 0 14 13 35 20 31 4 -2 18 7 30 20 27 28 17 34 -12 8 -19 -17 -19 -16 -13 10 8 29 4 32 -25 17 -22 -12 -40 -68 -40 -127 0 -23 -4 -45 -10 -48 -23 -14 3 135 30 180 l19 31 -74 77 -75 77 -33 -15 -32 -16 25 20 c14 11 29 21 33 21 10 0 -1 61 -14 74 -6 6 -9 6 -9 0 0 -6 -7 -19 -16 -30 -15 -19 -16 -19 -9 1 4 11 11 76 16 145 21 307 22 318 30 275 4 -22 8 -85 9 -140 0 -55 7 -129 14 -165 15 -69 58 -174 82 -201 13 -15 12 -17 -8 -22 -12 -4 -20 -9 -16 -12 8 -8 58 16 53 25 -6 10 22 33 43 36 10 1 31 4 47 8 23 5 25 4 10 -3 -14 -7 -15 -10 -5 -10 8 0 21 3 28 8 10 6 5 12 -18 21 -27 11 -33 10 -50 -5 -22 -20 -28 -8 -7 15 6 8 -4 1 -23 -15 -23 -20 -28 -22 -15 -7 16 20 17 25 5 32 -8 5 -25 7 -36 4 -38 -10 -35 14 3 27 53 17 269 237 255 259 -2 2 2 6 9 9 6 2 9 0 6 -5 -3 -5 12 -8 34 -6 32 3 43 -1 69 -27 38 -38 31 -60 -10 -31 -30 21 -75 27 -85 10 -3 -6 4 -10 17 -10 51 0 69 -26 98 -138 10 -38 17 -46 55 -63 56 -25 75 -44 75 -75 0 -17 7 -25 24 -30 21 -5 25 -13 28 -47 3 -37 8 -44 38 -60 30 -15 53 -17 150 -12 100 4 117 7 132 25 9 12 18 20 20 20 2 -1 11 2 20 5 14 6 15 11 7 26 -9 18 -12 18 -39 4 -17 -9 -30 -11 -30 -6 0 12 23 30 63 50 40 20 49 51 15 51 -13 0 -30 -5 -38 -10 -13 -8 -12 -11 5 -24 19 -14 18 -15 -15 -10 -23 3 -60 -4 -107 -20 -40 -14 -73 -22 -73 -18 0 4 24 16 53 26 61 22 79 34 70 50 -4 6 1 4 11 -4 17 -13 22 -10 58 28 21 23 36 47 33 52 -10 16 -37 11 -60 -10 -12 -12 -40 -23 -61 -25 -21 -3 -32 -2 -24 1 66 28 86 43 111 82 22 35 26 49 18 63 -14 26 -38 24 -71 -8 -15 -15 -28 -22 -28 -16 0 7 16 25 37 42 l36 30 -35 35 c-29 29 -44 36 -74 36 -21 0 -46 -7 -56 -17 -28 -25 -21 -37 8 -14 15 12 38 21 53 20 25 -1 24 -1 -6 -10 -17 -5 -44 -24 -59 -42 -23 -28 -26 -29 -19 -8 5 16 4 21 -4 17 -6 -4 -11 -3 -11 3 0 5 5 13 10 16 20 13 8 23 -52 44 -95 34 -102 35 -163 12 l-58 -22 -40 22 c-39 20 -61 21 -112 4 -16 -6 -17 -5 -5 4 13 9 13 11 -3 11 -10 0 -39 -20 -65 -44 -63 -58 -84 -68 -116 -56 -32 12 -75 76 -82 122 -6 35 22 156 33 145 3 -4 6 -37 8 -75 2 -78 24 -127 67 -151 25 -15 28 -13 72 27 31 28 55 42 76 43 16 1 35 3 40 4 6 1 14 3 20 4 5 0 7 8 4 16 -5 12 -17 14 -60 9 -65 -8 -96 9 -115 60 -10 27 -22 38 -55 51 -59 23 -84 66 -74 130 2 13 4 10 7 -10 2 -16 6 -40 8 -52z m1036 -12 c-13 -24 -61 -51 -91 -51 -16 0 -20 -6 -20 -33 0 -18 -7 -43 -16 -55 -12 -17 -12 -22 -2 -22 8 -1 5 -7 -7 -16 -11 -8 -29 -12 -40 -9 -57 18 -92 24 -107 19 -26 -8 -22 -24 6 -24 38 0 74 -17 119 -55 22 -19 47 -35 54 -35 7 0 30 26 50 58 34 52 37 63 36 122 l-1 65 19 -40 c36 -77 15 -175 -47 -224 -37 -29 -49 -27 -102 23 -26 24 -57 48 -69 55 -27 14 -92 14 -130 1 l-28 -10 23 19 c12 11 22 23 21 28 -6 37 5 53 64 91 48 31 79 43 137 52 73 12 125 29 90 30 -8 0 -2 8 15 19 35 22 41 20 26 -8z m53 -13 c3 -13 6 -33 6 -46 0 -19 -3 -21 -19 -13 -25 14 -33 38 -21 62 14 25 26 24 34 -3z m-1118 -30 c-3 -13 -10 -30 -15 -38 -17 -25 -23 -4 -11 40 8 30 15 39 22 32 6 -6 8 -21 4 -34z m213 6 c9 -8 -55 -2 -74 6 -13 6 -5 7 25 3 25 -3 47 -7 49 -9z m730 12 c-2 -2 -24 -6 -49 -10 -31 -4 -40 -3 -30 4 13 9 89 15 79 6z m315 -232 c13 -94 31 -187 40 -207 8 -20 11 -37 6 -37 -5 0 -12 9 -15 20 -8 26 -21 18 -28 -17 -3 -16 -8 -35 -12 -44 -4 -11 2 -25 17 -39 13 -13 16 -20 8 -15 -8 4 -1 -4 15 -18 l30 -25 9 51 c5 29 9 78 9 110 -1 56 12 78 20 35 2 -13 5 -2 6 23 2 63 -22 126 -69 183 -22 27 -40 51 -40 53 0 8 90 -76 91 -85 1 -4 10 -29 21 -57 15 -37 19 -65 15 -106 -3 -35 0 -67 9 -88 17 -41 17 -42 -1 -35 -8 4 -15 14 -16 23 0 9 -8 0 -16 -19 -11 -24 -14 -53 -10 -95 l5 -60 -21 25 -22 25 0 -65 c0 -83 -18 -127 -51 -127 -23 0 -24 2 -24 71 l1 71 31 -34 31 -34 -5 60 c-3 42 -11 68 -26 88 -12 15 -19 31 -17 36 3 4 -8 16 -25 25 -35 21 -37 35 -13 95 14 36 17 76 16 229 0 102 1 178 3 170 2 -8 15 -92 28 -186z m-265 56 c-23 -40 -45 -50 -66 -29 -9 9 -6 16 11 30 14 11 26 34 30 58 3 22 14 47 24 57 16 17 17 16 20 -29 2 -35 -3 -58 -19 -87z m-868 70 c9 -18 26 -40 39 -50 l24 -18 -24 -21 c-52 -43 -87 -12 -97 83 -6 56 -6 56 18 48 13 -5 31 -24 40 -42z m993 -18 c31 -112 14 -252 -31 -252 -13 0 -113 57 -113 64 0 1 16 0 35 -2 48 -6 94 15 101 45 8 29 -3 143 -16 178 -5 14 -6 25 -1 25 5 0 16 -26 25 -58z m-490 24 c21 -9 45 -15 52 -12 8 3 14 1 14 -4 0 -17 -52 -11 -86 11 -19 11 -34 23 -34 26 0 2 3 3 8 1 4 -2 24 -12 46 -22z m-136 -2 c-9 -9 -38 -18 -64 -20 -48 -3 -48 -3 -14 7 19 6 46 14 60 19 36 12 36 12 18 -6z m-673 -34 c0 -25 -8 -47 -22 -62 -36 -40 -54 -88 -60 -161 -4 -57 -3 -70 7 -61 6 7 15 38 19 70 6 47 33 124 44 124 2 0 -10 -240 -12 -248 -1 -2 -6 0 -12 4 -7 4 -9 22 -5 48 6 38 5 40 -9 22 -20 -27 -19 -55 6 -111 15 -34 19 -57 14 -84 -6 -33 -5 -35 8 -16 14 18 16 14 23 -54 l7 -73 24 31 c14 17 34 36 46 43 19 9 20 9 11 -3 -7 -8 -15 -30 -19 -49 -3 -19 -9 -43 -12 -54 -3 -10 -1 -16 4 -13 5 3 7 -8 5 -26 -5 -31 -5 -31 -14 -7 -10 25 -6 77 7 115 6 16 3 16 -14 -5 -12 -14 -24 -38 -28 -54 -5 -25 -7 -27 -13 -10 -4 10 -11 45 -14 77 -7 53 -9 57 -22 40 -12 -16 -13 -10 -14 52 -1 49 -7 80 -20 105 -16 29 -19 31 -20 13 0 -12 -3 -24 -7 -26 -5 -3 -6 43 -5 101 4 98 7 115 41 187 2 6 -4 3 -15 -5 -18 -14 -18 -14 1 15 10 17 30 49 43 73 13 23 25 42 26 42 1 0 2 -18 1 -40z m147 -27 c-17 -82 -11 -148 15 -175 17 -17 25 -18 69 -8 27 6 67 22 89 36 l40 25 -45 -41 c-142 -130 -190 -116 -190 56 0 76 16 174 29 174 4 0 1 -30 -7 -67z m568 27 c0 -16 -62 -50 -91 -50 -14 0 -34 7 -45 15 -18 14 -17 14 10 5 33 -12 86 1 106 26 15 17 20 18 20 4z m66 -5 c10 -8 14 -15 8 -15 -5 0 -19 7 -30 15 -10 8 -14 15 -8 15 5 0 19 -7 30 -15z m2 -92 c50 -16 56 -22 74 -63 28 -63 17 -87 -50 -112 -60 -22 -75 -43 -46 -67 17 -14 18 -20 8 -51 -6 -19 -17 -36 -23 -38 -32 -11 -60 60 -35 85 8 8 14 21 14 29 0 16 -65 51 -117 62 -29 6 -38 13 -45 37 -5 18 -4 41 3 57 6 15 9 34 6 41 -3 9 4 12 27 9 18 -2 47 3 66 11 46 20 54 20 118 0z m-571 -81 c-35 -6 -47 6 -47 48 l0 42 33 -44 c30 -38 31 -43 14 -46z m1044 45 c-10 -9 -11 -8 -5 6 3 10 9 15 12 12 3 -3 0 -11 -7 -18z m-246 3 c-3 -5 -14 -10 -24 -10 -36 0 -81 -80 -81 -144 0 -27 -11 -48 -51 -95 -47 -57 -76 -81 -96 -81 -4 0 2 7 14 15 12 8 23 27 25 42 3 25 44 63 80 75 6 2 15 33 19 67 8 68 30 108 70 128 29 15 52 17 44 3z m500 -71 c7 -42 -2 -71 -16 -47 -4 8 -11 39 -14 69 -6 49 -5 52 9 36 8 -11 17 -36 21 -58z m-503 18 c-42 -44 -16 -85 33 -53 23 15 25 15 25 0 0 -19 -65 -84 -84 -84 -7 0 -21 -8 -30 -19 -16 -18 -16 -20 9 -39 l25 -20 -44 -17 c-25 -10 -53 -26 -62 -36 -16 -18 -16 -21 -1 -36 15 -15 21 -15 74 0 32 8 58 15 59 14 1 -1 4 -14 8 -29 6 -28 6 -28 -46 -30 -29 0 -75 -2 -103 -4 -86 -5 -136 29 -82 57 33 17 117 109 133 146 8 18 14 48 14 68 0 42 23 81 59 100 34 18 40 10 13 -18z m-852 -128 c0 -4 -7 -10 -15 -13 -16 -6 -35 28 -35 62 0 12 7 9 25 -13 13 -16 24 -33 25 -36z m1051 14 l34 -36 -31 21 c-36 24 -61 52 -47 52 5 0 25 -16 44 -37z m-553 1 c58 -21 70 -36 20 -25 -36 9 -98 38 -98 47 0 4 6 4 13 1 6 -2 36 -13 65 -23z m222 10 c0 -10 -69 -34 -97 -33 -22 0 -15 4 27 19 63 21 70 22 70 14z m490 -105 c27 -17 50 -34 50 -37 -1 -20 -37 -52 -53 -46 -14 5 -16 14 -11 45 4 22 2 39 -3 39 -11 0 -51 29 -41 30 4 0 30 -14 58 -31z m120 0 c0 -10 -4 -19 -10 -19 -5 0 -10 12 -10 26 0 14 4 23 10 19 6 -3 10 -15 10 -26z m-195 -60 c22 -10 33 -18 25 -18 -8 0 -37 11 -65 25 -55 26 -23 21 40 -7z m-1244 -17 c-7 -13 -7 -22 1 -30 5 -5 7 -15 4 -21 -14 -21 -24 -10 -28 29 -3 33 -1 40 15 40 14 0 16 -4 8 -18z m1149 -7 c14 -1 26 -3 28 -4 1 0 5 -1 10 -2 4 0 13 -6 20 -11 29 -25 -13 -25 -67 -1 -55 25 -56 25 -36 3 16 -18 94 -60 111 -60 2 0 0 8 -3 18 -6 15 -5 15 10 3 23 -18 79 -101 68 -101 -4 0 -6 -13 -3 -30 3 -19 0 -30 -8 -30 -7 0 -10 13 -8 36 2 31 -2 38 -32 57 -31 19 -33 19 -20 2 14 -17 13 -18 -2 -12 -19 7 -23 -2 -10 -19 4 -5 -10 9 -31 31 -48 51 -97 115 -97 128 0 5 10 6 23 2 12 -4 33 -8 47 -10z m-1090 -16 c0 -5 11 -15 25 -21 19 -9 24 -16 19 -32 -6 -18 -5 -19 10 -7 31 26 16 -3 -18 -33 -24 -23 -35 -44 -41 -76 -12 -71 -23 -80 -21 -15 3 49 7 62 30 82 15 13 24 23 21 23 -3 0 -1 10 6 22 10 18 9 20 -5 15 -10 -4 -16 -1 -16 7 0 8 -13 20 -30 28 -36 16 -39 27 -5 20 14 -2 25 -8 25 -13z m1257 -19 c-13 -21 -32 -26 -42 -10 -3 5 0 18 7 29 9 15 16 17 30 10 15 -8 16 -13 5 -29z m83 -12 c0 -4 -8 -8 -18 -8 -10 0 -23 -5 -30 -12 -23 -23 -24 1 -1 33 21 30 23 31 36 13 7 -10 13 -21 13 -26z m-96 -40 c-2 -4 5 -9 16 -13 11 -3 20 -11 20 -16 0 -12 -35 6 -72 37 -17 14 -23 24 -15 27 14 4 57 -25 51 -35z m-1437 -71 c24 -23 28 -36 29 -85 1 -31 5 -65 9 -75 12 -29 -3 -110 -25 -132 -17 -17 -36 -21 -122 -23 -95 -4 -100 -3 -93 15 4 10 14 45 21 78 16 70 5 154 -27 218 l-20 39 100 -4 c94 -3 102 -5 128 -31z m1862 24 c11 -7 12 -19 5 -53 -8 -39 -12 -43 -42 -46 -30 -3 -32 -1 -27 20 6 22 3 23 -50 23 -52 0 -67 -6 -46 -19 5 -3 7 -14 4 -24 -4 -15 5 -21 51 -31 72 -16 91 -41 101 -127 8 -80 5 -84 -82 -84 -98 0 -122 15 -137 87 -7 30 -6 32 24 31 23 -1 32 -7 36 -25 6 -22 24 -27 92 -23 9 1 3 41 -9 56 -5 6 -33 16 -63 23 -69 15 -80 28 -74 91 5 52 26 86 63 101 27 11 137 11 154 0z m-379 -73 c0 -5 -4 -8 -8 -8 -9 0 -32 44 -32 58 1 9 39 -41 40 -50z m-1287 -84 c-24 -18 -33 -17 -33 1 0 8 4 15 9 15 5 0 16 17 23 37 l13 37 3 -38 c2 -27 -2 -42 -15 -52z m-65 -47 l-5 -92 39 4 c37 3 39 2 36 -20 -3 -22 -8 -24 -69 -27 l-66 -3 14 53 c8 29 13 81 11 116 -3 60 -2 62 21 62 24 0 24 0 19 -93z m230 16 c11 -43 23 -95 27 -115 6 -36 4 -38 -20 -38 -19 0 -25 5 -25 23 0 19 -5 22 -37 21 -28 -1 -39 -7 -46 -23 -6 -11 -19 -21 -30 -21 -11 0 -17 5 -14 13 39 88 57 139 63 175 6 38 9 42 34 42 26 0 29 -4 48 -77z m202 58 c18 -35 12 -61 -14 -61 -17 0 -23 5 -22 18 1 13 -8 18 -34 20 l-35 3 3 -73 3 -73 30 -1 c24 -1 29 3 29 22 0 17 6 24 20 24 16 0 20 -7 20 -35 0 -40 -20 -55 -74 -55 -65 0 -66 2 -66 109 0 62 4 101 12 109 7 7 36 12 65 12 41 0 54 -4 63 -19z m82 -37 l3 -56 30 54 c24 42 37 54 59 56 l28 4 -30 -43 -29 -43 28 -69 c16 -39 29 -71 29 -73 0 -2 -11 -4 -23 -4 -20 0 -27 9 -42 55 l-19 54 -18 -27 c-10 -15 -18 -39 -18 -54 0 -22 -5 -28 -22 -28 -23 0 -23 1 -20 115 3 105 5 115 22 115 16 0 19 -9 22 -56z m338 36 c0 -16 -7 -20 -37 -20 -29 0 -34 -3 -25 -12 7 -7 12 -44 12 -95 0 -76 -2 -83 -20 -83 -19 0 -20 7 -20 95 l0 95 -30 0 c-23 0 -30 4 -30 20 0 18 7 20 75 20 68 0 75 -2 75 -20z m70 -49 c0 -37 3 -89 6 -115 6 -42 5 -46 -13 -46 -27 0 -33 24 -33 138 0 85 1 92 20 92 18 0 20 -7 20 -69z m178 57 c7 -7 12 -25 12 -40 0 -21 -5 -28 -20 -28 -13 0 -20 7 -20 20 0 16 -7 20 -38 20 l-37 0 9 -75 c10 -73 11 -75 38 -75 23 0 28 4 28 24 0 19 -4 23 -20 19 -16 -4 -20 0 -20 21 0 24 4 26 39 26 l38 0 6 -52 c3 -29 0 -59 -5 -65 -12 -15 -92 -17 -118 -3 -14 8 -20 27 -25 94 -9 111 -2 126 68 126 29 0 58 -5 65 -12z m182 -10 c0 -21 -4 -23 -54 -20 l-55 4 12 -26 c9 -20 19 -26 45 -26 22 0 32 -5 32 -15 0 -26 -4 -29 -38 -26 -31 2 -33 1 -30 -26 3 -27 5 -28 51 -26 26 1 47 -2 47 -7 0 -5 3 -15 6 -24 5 -14 -4 -16 -64 -16 l-69 0 -7 46 c-3 26 -6 78 -6 115 l0 69 65 0 c61 0 65 -1 65 -22z m168 10 c18 -18 16 -115 -3 -126 -13 -7 -11 -14 15 -50 l30 -42 -24 0 c-16 0 -31 12 -50 40 -30 45 -62 55 -52 16 3 -13 9 -31 12 -40 4 -11 0 -16 -14 -16 -12 0 -23 4 -27 9 -10 18 -23 153 -18 187 l6 34 56 0 c31 0 62 -5 69 -12z m-1187 -29 c-9 -22 -10 -22 -10 -3 -1 11 2 24 6 27 12 12 14 0 4 -24z m-181 -59 c0 -35 -4 -50 -13 -50 -15 0 -37 42 -36 68 0 11 6 6 14 -13 12 -26 14 -27 15 -8 0 23 9 53 16 53 2 0 4 -22 4 -50z m566 32 c6 -4 13 -37 16 -74 3 -50 10 -76 27 -99 12 -17 21 -32 19 -33 -1 -2 -18 1 -36 6 -28 7 -31 12 -26 34 4 15 -2 48 -16 84 -27 72 -20 106 16 82z m858 -7 c3 -8 1 -15 -4 -15 -6 0 -10 7 -10 15 0 8 2 15 4 15 2 0 6 -7 10 -15z m-807 -62 c3 -32 9 -65 14 -75 5 -9 9 -23 9 -30 -1 -7 -8 -1 -16 15 -16 29 -33 167 -19 155 5 -4 10 -34 12 -65z m-320 10 c-16 -16 -17 -15 -17 17 0 32 1 33 17 17 16 -16 16 -18 0 -34z m469 -30 c-4 -81 -25 -149 -53 -170 -15 -12 -15 -14 2 -33 10 -11 22 -20 27 -20 18 0 49 65 46 97 -2 17 0 29 4 27 15 -9 8 -69 -12 -101 -16 -27 -17 -33 -5 -33 16 0 45 49 45 75 0 10 5 13 11 9 8 -5 10 1 6 18 -5 20 -3 27 13 31 16 4 20 -3 29 -45 13 -60 14 -88 2 -88 -5 0 -12 24 -16 53 -6 33 -10 44 -12 29 -3 -13 3 -48 13 -79 17 -55 17 -55 -7 -100 -31 -57 -57 -81 -33 -30 10 20 21 37 25 37 10 0 20 46 13 64 -5 14 -8 14 -21 1 -25 -26 -60 -28 -123 -6 -75 26 -111 26 -192 1 -103 -32 -147 -23 -161 35 -2 11 -5 -1 -6 -27 0 -27 4 -48 9 -48 6 0 10 -13 10 -28 0 -16 7 -37 16 -48 14 -18 15 -18 9 6 -5 25 -5 25 6 3 7 -13 19 -23 27 -23 9 0 27 -10 40 -22 24 -22 25 -22 18 -3 -5 16 -2 15 16 -6 13 -14 42 -40 64 -57 l41 -32 66 50 c36 27 73 60 81 72 9 12 16 18 16 13 0 -6 7 -2 15 9 13 17 14 16 13 -13 -1 -17 -6 -31 -13 -31 -6 0 -22 -11 -35 -25 -12 -13 -26 -23 -30 -22 -4 1 -32 -16 -63 -38 -54 -39 -56 -41 -52 -80 4 -38 4 -37 -14 15 -19 57 -54 91 -143 139 -31 16 -36 17 -31 3 5 -12 -1 -10 -26 7 -44 32 -59 58 -92 161 -15 50 -35 97 -43 106 -17 17 -22 44 -8 44 5 0 14 -10 20 -22 l11 -23 0 23 c2 44 17 21 19 -30 3 -61 35 -175 57 -203 15 -19 16 -19 4 4 -17 35 -30 159 -23 217 6 48 7 51 27 41 18 -9 22 -19 23 -64 0 -31 -3 -48 -8 -41 -6 10 -8 8 -8 -5 0 -21 43 -67 63 -67 8 0 40 9 72 20 68 23 152 26 200 6 33 -14 63 -19 97 -17 22 1 44 39 30 53 -7 7 -14 3 -22 -12 -10 -18 -10 -21 2 -15 7 5 10 4 5 0 -12 -14 -49 -13 -102 3 -67 20 -138 19 -208 -4 -42 -13 -65 -15 -84 -8 -24 8 -27 15 -29 59 l-2 50 12 -36 c12 -38 33 -69 47 -69 5 0 0 15 -11 33 -23 40 -37 107 -21 107 6 0 11 -11 11 -25 0 -31 24 -90 40 -100 7 -5 23 4 38 21 20 21 23 29 12 32 -29 10 -70 64 -69 91 0 24 1 24 13 -8 19 -54 55 -75 137 -79 62 -4 73 -2 95 19 32 30 31 46 -2 20 -36 -28 -111 -28 -165 0 -55 27 -42 37 14 10 55 -27 107 -27 141 0 14 11 30 18 35 15 13 -9 21 31 21 112 0 40 4 72 10 72 5 0 8 -32 6 -77z m-636 -110 c19 -26 61 -75 93 -109 68 -74 91 -121 117 -248 11 -53 24 -106 30 -116 6 -11 7 -20 2 -20 -10 0 -44 69 -38 78 7 12 -32 170 -52 206 -9 18 -45 64 -79 101 -71 77 -77 71 -42 -40 20 -67 37 -89 19 -24 -6 18 -10 43 -9 54 0 11 8 -8 18 -42 18 -61 48 -119 58 -110 2 3 -3 19 -11 36 -9 16 -16 34 -15 38 0 4 25 -41 55 -101 30 -59 53 -110 51 -113 -6 -5 -52 74 -61 105 -4 12 -14 22 -22 22 -8 0 -22 13 -33 30 -10 16 -20 28 -23 25 -3 -3 -15 18 -28 47 -12 29 -35 68 -51 86 -16 18 -29 40 -29 50 0 12 -3 13 -8 5 -5 -8 -11 -3 -19 17 -8 22 -8 30 2 34 9 3 11 -2 8 -17 -3 -14 -2 -18 4 -10 6 8 16 -4 32 -38 13 -27 27 -51 30 -53 3 -2 5 16 4 41 0 28 -8 52 -21 66 -25 29 -35 47 -25 47 4 0 24 -22 43 -47z m545 6 c-4 -5 -13 -9 -22 -9 -13 0 -13 3 -3 15 13 15 35 11 25 -6z m351 -48 c-20 -27 -43 -52 -52 -55 -9 -4 -3 9 14 28 16 19 38 48 48 65 10 18 20 27 22 21 2 -5 -12 -32 -32 -59z m-791 -9 c51 -58 39 -55 -27 7 -36 33 -47 52 -30 50 4 -1 30 -26 57 -57z m-2 38 c3 -11 1 -18 -4 -14 -5 3 -9 12 -9 20 0 20 7 17 13 -6z m719 -2 c7 25 28 30 28 6 0 -8 -4 -13 -9 -10 -10 6 -25 -32 -61 -149 -22 -70 -47 -121 -57 -112 -2 3 2 16 11 29 17 25 65 198 67 238 l1 25 7 -25 c7 -25 7 -25 13 -2z m161 10 c-6 -7 -38 -48 -72 -91 -33 -43 -66 -88 -72 -100 -12 -21 -49 -179 -44 -185 4 -4 65 137 65 152 0 20 17 29 23 12 8 -19 -82 -188 -95 -180 -7 4 -8 2 -4 -4 4 -6 -2 -28 -13 -49 -26 -50 -26 -42 4 69 14 51 25 103 25 116 0 12 10 42 21 65 24 47 149 206 163 207 5 0 4 -6 -1 -12z m56 -5 c1 9 5 17 10 17 5 0 4 -17 -2 -37 -8 -27 -13 -32 -15 -19 -3 13 -11 1 -23 -33 -20 -58 -59 -115 -89 -131 -19 -10 -20 -7 -19 32 1 24 3 34 6 23 14 -56 43 -21 65 77 6 29 14 45 16 35 2 -10 -1 -32 -7 -49 -6 -17 -9 -33 -7 -35 2 -3 15 27 27 67 17 52 25 66 30 53 7 -17 8 -17 8 0z m-199 -112 c0 -6 -4 -13 -10 -16 -5 -3 -10 1 -10 9 0 9 5 16 10 16 6 0 10 -4 10 -9z m94 -35 c-3 -15 -8 -25 -11 -23 -2 3 -1 17 3 31 3 15 8 25 11 23 2 -3 1 -17 -3 -31z m-474 -25 c0 -5 -6 -11 -12 -14 -9 -3 -7 -7 5 -12 11 -4 23 -3 30 4 8 8 8 11 -2 11 -7 0 -9 5 -6 10 13 21 34 10 33 -17 -1 -25 -5 -28 -39 -29 -31 -1 -38 3 -42 22 -4 21 4 31 26 33 4 1 7 -3 7 -8z m-50 -10 c0 -5 3 -16 6 -25 5 -12 0 -16 -17 -16 -17 0 -20 3 -11 9 11 7 10 10 -3 15 -26 9 -42 7 -25 -4 13 -9 13 -10 0 -10 -12 0 -12 -2 -2 -9 11 -7 11 -9 -2 -14 -15 -6 -17 -3 -20 35 -1 7 10 15 24 19 37 10 50 10 50 0z m150 -11 c0 -12 5 -17 14 -14 7 3 16 -2 20 -12 5 -13 2 -15 -11 -9 -10 4 -28 7 -40 6 -18 -1 -23 5 -23 24 0 18 5 25 20 25 13 0 20 -7 20 -20z m60 5 c16 -2 15 -33 -2 -50 -6 -7 -9 -2 -6 15 2 14 -2 25 -9 26 -7 1 -17 2 -23 3 -5 0 -10 6 -10 12 0 7 7 8 18 4 9 -4 24 -8 32 -10z m80 0 c0 -2 -9 -9 -20 -15 -16 -9 -20 -8 -20 5 0 8 9 15 20 15 11 0 20 -2 20 -5z m-389 -36 c9 -18 9 -19 -10 -7 -12 7 -21 19 -21 26 0 17 17 7 31 -19z m218 -28 c20 -13 -4 -51 -32 -51 -29 0 -90 37 -82 50 8 12 95 13 114 1z m191 -77 c-29 -38 -61 -86 -72 -107 -11 -22 -22 -37 -25 -34 -8 9 43 97 93 160 64 80 67 65 4 -19z m-270 11 c50 -26 77 -20 99 23 12 21 20 30 21 20 0 -10 -13 -32 -28 -49 -23 -25 -34 -31 -53 -26 -39 10 -93 51 -97 72 -3 18 -2 18 13 -3 9 -12 29 -29 45 -37z m-104 -117 c13 -27 21 -48 17 -48 -5 0 -16 17 -25 38 -10 20 -38 58 -63 84 -59 62 -58 75 1 18 25 -25 57 -66 70 -92z m-6 92 c13 -8 13 -10 -2 -10 -9 0 -20 5 -23 10 -8 13 5 13 25 0z m318 -10 c-13 -20 -28 -27 -28 -12 0 10 22 32 32 32 5 0 3 -9 -4 -20z m-48 -32 c0 -12 -3 -18 -7 -15 -3 4 -15 0 -25 -10 -25 -23 -23 -4 4 24 26 28 28 28 28 1z m-248 -3 c8 8 32 -25 33 -46 2 -18 0 -18 -23 3 -28 27 -55 71 -30 51 8 -7 17 -11 20 -8z"/> <path d="M1880 2350 c-9 -6 -10 -10 -3 -10 6 0 15 5 18 10 8 12 4 12 -15 0z"/> <path d="M1739 1953 c-13 -16 -12 -17 4 -4 9 7 17 15 17 17 0 8 -8 3 -21 -13z"/> <path d="M1162 1939 c3 -13 9 -33 13 -44 6 -17 4 -17 -14 4 -12 13 -21 29 -21 37 0 8 -5 14 -11 14 -12 0 -3 -37 14 -58 14 -18 52 -38 42 -23 -5 8 1 10 19 5 14 -3 37 -3 51 0 22 6 24 9 14 27 -10 19 -12 20 -29 4 -19 -17 -22 -16 -45 29 -16 30 -39 34 -33 5z"/> <path d="M1210 1745 c-33 -35 -18 -43 20 -11 39 32 51 33 89 0 19 -15 29 -20 25 -11 -18 48 -97 61 -134 22z"/> <path d="M1180 1691 c-37 -20 -140 -123 -140 -140 0 -16 17 -22 45 -15 18 4 25 13 25 30 0 31 -14 30 -39 -2 -12 -15 -21 -21 -21 -15 0 7 15 26 33 43 17 16 43 41 57 54 14 13 32 24 40 24 22 0 58 -27 71 -53 10 -19 8 -18 -18 6 -28 26 -76 36 -87 18 -3 -5 1 -14 9 -21 8 -7 12 -16 10 -21 -3 -4 14 -29 38 -54 34 -35 51 -45 75 -45 18 0 32 -5 32 -11 0 -18 -71 0 -107 27 -33 25 -73 32 -73 13 0 -31 49 -71 98 -79 4 -1 12 -5 17 -10 6 -4 34 -13 63 -20 28 -6 55 -17 59 -23 4 -6 0 -8 -10 -4 -10 4 -47 12 -83 18 -72 13 -102 2 -59 -21 41 -22 29 -32 -13 -11 l-38 19 1 -21 c0 -33 13 -47 59 -68 56 -24 205 -28 259 -6 33 14 37 20 37 51 0 31 -5 38 -37 55 -60 30 -132 122 -154 194 -22 72 -27 80 -56 96 -30 15 -52 13 -93 -8z m113 -53 c8 -18 18 -50 21 -70 8 -44 100 -159 147 -183 34 -18 37 -40 8 -56 -22 -11 -212 -10 -224 3 -3 3 -1 15 6 26 11 17 22 20 68 19 50 -2 56 0 56 18 0 11 -14 28 -31 40 -23 14 -31 27 -30 45 1 18 -7 28 -29 38 -38 18 -95 72 -95 89 0 10 9 7 29 -8 16 -12 34 -18 40 -15 14 9 14 41 1 67 -8 15 -7 19 4 19 7 0 20 -15 29 -32z"/> <path d="M1888 1590 c-17 -30 -17 -30 7 -30 21 0 25 5 25 30 0 38 -10 38 -32 0z"/> <path d="M1128 1575 c-5 -22 -2 -25 24 -25 l29 0 -18 25 c-23 31 -30 31 -35 0z"/> <path d="M996 1529 l-29 -18 28 -7 c16 -4 47 -2 69 4 46 12 46 12 49 -17 1 -11 7 -21 15 -21 7 0 11 6 8 13 -3 6 -9 20 -12 30 -7 19 -18 19 -104 0 -24 -5 -24 -5 -5 10 29 23 15 27 -19 6z"/> <path d="M1908 1516 c-17 -23 -17 -24 8 -29 29 -5 38 5 29 33 -8 26 -16 25 -37 -4z"/> <path d="M1960 1513 c1 -18 28 -42 64 -57 47 -20 47 -20 40 -1 -4 8 -10 13 -14 10 -4 -3 -14 2 -21 11 -15 19 -69 48 -69 37z"/> <path d="M2000 1516 c0 -2 11 -11 25 -20 28 -19 33 -15 9 8 -14 15 -34 22 -34 12z"/> <path d="M1075 1490 c-3 -5 1 -10 9 -10 9 0 16 5 16 10 0 6 -4 10 -9 10 -6 0 -13 -4 -16 -10z"/> <path d="M1142 1453 c-9 -4 -10 -9 -2 -18 8 -9 6 -14 -5 -18 -8 -4 -14 -1 -12 5 1 7 -15 12 -40 13 -24 0 -37 -2 -31 -6 9 -6 7 -13 -6 -28 -21 -24 -15 -27 17 -9 12 6 33 13 47 14 91 11 112 21 85 41 -20 14 -31 15 -53 6z"/> <path d="M991 1408 c-16 -16 -18 -25 -9 -35 9 -11 16 -9 40 14 20 19 25 29 16 35 -19 12 -25 10 -47 -14z m39 8 c0 -2 -7 -7 -16 -10 -8 -3 -12 -2 -9 4 6 10 25 14 25 6z"/> <path d="M1067 1384 c-15 -8 -33 -12 -39 -8 -6 4 -8 3 -5 -3 4 -6 0 -13 -8 -17 -9 -3 -12 -12 -9 -21 6 -14 10 -13 33 8 14 13 37 31 51 40 30 21 15 21 -23 1z"/> <path d="M1104 1375 c-46 -27 -80 -70 -64 -80 13 -8 32 4 25 15 -3 4 6 11 20 14 13 3 30 16 36 27 8 16 13 18 19 10 5 -9 9 -8 13 4 5 11 3 14 -5 9 -8 -5 -9 -2 -5 9 8 21 10 22 -39 -8z"/> <path d="M1472 1281 c-11 -7 -10 -10 3 -15 25 -9 135 -7 135 3 0 18 -113 28 -138 12z"/> <path d="M1151 1269 c-1 -18 20 -82 25 -77 2 2 -3 24 -11 48 -7 25 -14 38 -14 29z"/> <path d="M1206 1260 c3 -14 11 -32 16 -40 6 -10 7 -7 2 10 -3 14 -11 32 -16 40 -6 10 -7 7 -2 -10z"/> <path d="M1432 1250 c7 -23 36 -36 50 -22 14 14 11 18 -26 28 -21 5 -28 4 -24 -6z"/> <path d="M1600 1250 c-13 -8 -13 -10 2 -10 9 0 20 5 23 10 8 13 -5 13 -25 0z"/> <path d="M1500 1240 c0 -5 7 -10 16 -10 8 0 12 5 9 10 -3 6 -10 10 -16 10 -5 0 -9 -4 -9 -10z"/> <path d="M1543 1238 c2 -7 10 -13 17 -13 7 0 15 6 18 13 2 7 -5 12 -18 12 -13 0 -20 -5 -17 -12z"/> <path d="M1828 1948 c-16 -5 -28 -14 -28 -19 0 -13 14 -11 28 3 9 9 12 8 12 -5 0 -22 -26 -33 -43 -19 -8 7 -18 8 -27 1 -13 -8 -12 -12 4 -24 11 -8 32 -15 47 -15 15 0 39 -4 53 -10 14 -5 25 -6 24 -2 -1 4 4 20 10 35 15 35 15 54 2 62 -6 4 -10 -8 -10 -27 0 -19 -5 -39 -12 -46 -22 -22 -27 -13 -11 16 17 30 12 63 -9 61 -7 0 -25 -5 -40 -11z"/> <path d="M776 1853 c-6 -14 -5 -15 5 -6 7 7 10 15 7 18 -3 3 -9 -2 -12 -12z"/> <path d="M1989 1311 c18 -16 40 -27 48 -24 18 7 12 12 -39 34 l-43 19 34 -29z"/> <path d="M569 1179 c11 -11 21 -29 21 -39 0 -17 7 -20 45 -20 40 0 45 2 45 23 0 36 -12 44 -74 50 l-58 6 21 -20z"/> <path d="M588 1020 l-4 -41 51 3 50 3 3 38 3 37 -49 0 -50 0 -4 -40z m59 -6 c-3 -3 -12 -4 -19 -1 -8 3 -5 6 6 6 11 1 17 -2 13 -5z"/> <path d="M1012 1043 c-15 -51 -16 -49 8 -49 21 0 24 19 11 65 -6 23 -8 22 -19 -16z"/> <path d="M2190 1085 c6 -8 9 -23 5 -35 -6 -18 -2 -20 29 -20 34 0 36 2 36 35 0 34 -1 35 -41 35 -35 0 -40 -2 -29 -15z"/> <path d="M1287 863 c-11 -19 -18 -73 -9 -73 5 0 13 16 17 36 6 35 2 54 -8 37z"/> <path d="M1455 780 c-11 -18 -1 -20 38 -9 24 6 55 7 87 1 37 -7 50 -6 47 2 -5 15 -163 21 -172 6z"/> <path d="M1580 664 c0 -8 5 -12 10 -9 6 3 10 10 10 16 0 5 -4 9 -10 9 -5 0 -10 -7 -10 -16z"/> </g> </svg> 